<?xml version="1.0" encoding="UTF-8" standalone="no"?>
<!-- Created with Inkscape (http://www.inkscape.org/) -->

<svg
   xmlns:dc="http://purl.org/dc/elements/1.1/"
   xmlns:cc="http://creativecommons.org/ns#"
   xmlns:rdf="http://www.w3.org/1999/02/22-rdf-syntax-ns#"
   xmlns:svg="http://www.w3.org/2000/svg"
   xmlns="http://www.w3.org/2000/svg"
   xmlns:sodipodi="http://sodipodi.sourceforge.net/DTD/sodipodi-0.dtd"
   xmlns:inkscape="http://www.inkscape.org/namespaces/inkscape"
   width="435mm"
   height="420mm"
   viewBox="0 0 435 420"
   version="1.1"
   id="svg8"
   inkscape:version="0.92.2 (5c3e80d, 2017-08-06)"
   sodipodi:docname="drawing.svg">
  <defs
     id="defs2" />
  <sodipodi:namedview
     id="base"
     pagecolor="#ffffff"
     bordercolor="#666666"
     borderopacity="1.0"
     inkscape:pageopacity="0.0"
     inkscape:pageshadow="2"
     inkscape:zoom="0.35"
     inkscape:cx="-48.571429"
     inkscape:cy="548.57143"
     inkscape:document-units="mm"
     inkscape:current-layer="layer1"
     showgrid="false"
     inkscape:window-width="1920"
     inkscape:window-height="1016"
     inkscape:window-x="0"
     inkscape:window-y="27"
     inkscape:window-maximized="1"
     inkscape:snap-page="true" />
  <metadata
     id="metadata5">
    <rdf:RDF>
      <cc:Work
         rdf:about="">
        <dc:format>image/svg+xml</dc:format>
        <dc:type
           rdf:resource="http://purl.org/dc/dcmitype/StillImage" />
        <dc:title></dc:title>
      </cc:Work>
    </rdf:RDF>
  </metadata>
  <g
     inkscape:label="Layer 1"
     inkscape:groupmode="layer"
     id="layer1"
     transform="translate(96.598877,58.322814)">
    <g
       id="g4762"
       transform="translate(-0.75595204)">
      <path
         style="fill:#9a9a9a;stroke-width:0.35277778"
         d="m 89.153507,360.05653 c -0.442655,-0.17773 -8.697656,-1.76798 -18.344445,-3.53388 -9.64679,-1.7659 -22.619618,-4.14024 -28.828507,-5.27632 -6.20889,-1.13605 -16.964202,-3.10762 -23.900696,-4.38126 -31.921475,-5.86115 -38.008614,-6.97702 -40.481251,-7.42092 -2.682067,-0.48151 -40.395427,-7.4023 -55.91528,-10.26104 -4.656666,-0.85778 -10.451042,-1.90493 -12.876389,-2.32706 -2.425347,-0.4221 -4.517068,-0.86036 -4.648267,-0.97385 -0.1312,-0.11352 7.838777,-6.15953 17.711059,-13.43557 9.872281,-7.27604 17.956814,-13.41117 17.965627,-13.63359 0.0088,-0.22247 -5.500536,-2.61222 -12.243002,-5.31058 -7.419963,-2.96951 -12.259028,-5.0895 -12.259028,-5.37067 0,-0.4799 2.499809,-2.11737 22.354394,-14.64291 6.437636,-4.06127 11.653628,-7.55377 11.591095,-7.76111 -0.06254,-0.20734 -4.868355,-3.56905 -10.679595,-7.47047 -6.522922,-4.37922 -10.565893,-7.31032 -10.565893,-7.66013 0,-0.60922 1.496594,-1.62639 58.208335,-39.56173 19.4027783,-12.97882 39.367031,-26.34769 44.365003,-29.7086 4.997972,-3.36092 9.289087,-6.11077 9.535809,-6.11077 0.246723,0 3.142474,1.63714 6.434999,3.63807 3.292528,2.00094 11.225163,6.82667 17.62808,10.72384 6.402917,3.89717 13.864167,8.4367 16.580556,10.08784 l 4.938889,3.00207 0.804443,2.06089 c 2.641618,6.76755 3.645267,9.69881 3.543667,10.34966 -0.102986,0.65975 -0.658308,0.4035 -5.406443,-2.49477 -2.910417,-1.77653 -7.831667,-4.77622 -10.936111,-6.66599 -3.104445,-1.88976 -7.47007,-4.55013 -9.70139,-5.91192 -16.382453,-9.99838 -23.391351,-14.20635 -23.662404,-14.20635 -0.172819,0 -5.119166,3.22631 -10.991879,7.16958 -13.636576,9.15635 -57.082215,38.23182 -73.00628,48.85857 -6.728792,4.49038 -12.320987,8.30481 -12.427095,8.4765 -0.335351,0.5426 -2.240866,-0.78142 30.305711,21.05766 10.089445,6.77011 24.93257027,16.73401 32.9847233,22.14198 8.0521527,5.40797 20.4346537,13.71762 27.5166677,18.4659 7.082014,4.74825 21.253299,14.25931 31.491746,21.13566 10.238444,6.87638 18.839368,12.50248 19.113162,12.50248 0.295706,0 0.720443,-0.75191 1.046198,-1.85208 0.301615,-1.01865 6.880197,-22.01334 14.619064,-46.65487 l 14.07067,-44.80277 7.53169,-5.52298 c 4.14242,-3.03763 7.58413,-5.68034 7.64825,-5.87269 0.14698,-0.44092 -0.60046,-0.95346 -7.32633,-5.0239 -3.00743,-1.82007 -7.21431,-4.37491 -9.34861,-5.67742 l -3.88056,-2.36822 -0.21776,-4.17418 c -0.11976,-2.2958 -0.33082,-4.68894 -0.469,-5.3181 -0.15845,-0.72142 -0.11488,-1.1439 0.11798,-1.1439 0.20308,0 3.6685,2.00959 7.70095,4.46576 4.03245,2.45617 8.04609,4.8923 8.91922,5.41362 0.87312,0.52133 4.09648,2.48048 7.163,4.35368 3.06653,1.87321 5.6618,3.40583 5.76727,3.40583 0.18216,0 5.41991,-3.80622 30.10862,-21.87962 21.39482,-15.66212 39.86732,-29.17918 48.76982,-35.68684 8.48802,-6.20467 9.78832,-7.05105 9.79321,-6.37451 0.001,0.14552 -6.54739,19.8154 -14.55209,43.71086 -8.0047,23.89545 -14.43042,43.57173 -14.27939,43.72507 0.15104,0.15333 1.34166,-0.2912 2.64584,-0.98786 1.30417,-0.69666 13.64247,-7.25765 27.41845,-14.57997 13.77597,-7.32233 25.99972,-13.82942 27.16388,-14.46021 1.16417,-0.63078 4.8948,-2.61613 8.29028,-4.41189 3.39549,-1.79575 7.28486,-3.8606 8.64306,-4.58856 16.75345,-8.97948 19.22639,-10.22712 19.22639,-9.70015 0,0.0915 -4.0217,6.4018 -8.93713,14.02292 -14.70114,22.79338 -17.87398,27.75567 -17.87398,27.9546 0,0.47234 2.1808,-0.0725 16.23864,-4.05693 18.0188,-5.10709 33.71032,-9.55314 47.2192,-13.37911 5.50662,-1.55957 10.22273,-2.83558 10.48025,-2.83558 0.25757,0 -2.42224,4.28482 -5.95506,9.52183 -7.85347,11.6419 -32.53363,48.20299 -39.05525,57.85633 -2.61938,3.8772 -8.6039,12.74007 -13.29895,19.69523 -4.69509,6.95519 -8.74321,12.80558 -8.99584,13.00088 -0.25265,0.19526 -11.57188,2.20222 -25.15383,4.45982 -35.53953,5.90747 -70.77957,11.71384 -89.25278,14.70586 -2.32833,0.37712 -7.72583,1.25137 -11.99444,1.94278 -10.60478,1.71771 -19.13302,3.05883 -32.45556,5.10381 -18.638679,2.86103 -21.899658,3.19931 -23.735383,2.46225 z m 44.444633,-14.78707 c 10.30836,-1.63336 15.40214,-2.45865 43.84909,-7.10424 38.45136,-6.27937 88.64007,-14.68921 89.0035,-14.91382 0.15089,-0.0932 3.44368,-4.86558 7.31736,-10.60521 3.87367,-5.73962 11.19646,-16.58598 16.27286,-24.10304 22.58579,-33.4447 27.63545,-40.99935 27.63545,-41.34475 0,-0.20264 -0.19202,-0.36844 -0.42669,-0.36844 -0.35722,0 -55.77607,15.58833 -59.02851,16.60367 -0.88155,0.27521 -1.84417,1.53227 -5.45445,7.12289 -2.41119,3.7338 -5.67121,8.77309 -7.24449,11.19844 -1.57328,2.42535 -4.73659,7.3466 -7.02958,10.93611 -2.29299,3.58952 -4.425,6.78032 -4.73782,7.09066 -0.31281,0.31034 -8.34749,3.78238 -17.85486,7.71567 -9.50736,3.9333 -25.30298,10.48078 -35.10139,14.55 -27.96771,11.61482 -31.19723,12.95566 -43.56805,18.08847 -15.23631,6.32178 -14.99306,6.21514 -14.99306,6.57363 0,0.39896 -1.22815,0.55464 11.36064,-1.44004 z M 52.610388,343.59638 C 52.474272,343.46024 29.468751,334.19968 1.4870054,323.0173 -39.220648,306.74923 -49.529909,302.75335 -50.094448,303.02429 c -0.388056,0.18619 -1.499306,0.93355 -2.469445,1.6608 -0.970139,0.72722 -5.891389,4.37198 -10.936111,8.09946 -9.85867,7.28444 -10.305349,7.64237 -9.963727,7.984 0.123658,0.12365 3.130458,0.75314 6.681779,1.3989 6.423416,1.16795 26.127523,4.7746 46.320838,8.47859 29.3134846,5.3769 40.850271,7.50041 55.386113,10.19461 15.286193,2.8333 18.220119,3.29047 17.685389,2.75573 z M 138.1125,330.01231 c 14.06702,-5.82697 34.54577,-14.3215 45.50834,-18.87671 10.96257,-4.55517 24.53569,-10.18822 30.1625,-12.51779 15.75123,-6.5213 13.57561,-5.12696 17.40055,-11.15208 1.8092,-2.84988 5.08183,-7.95973 7.27251,-11.35521 10.79152,-16.7265 17.06643,-26.45726 21.84563,-33.87694 2.88403,-4.47744 5.13263,-8.2515 4.99688,-8.38679 -0.25749,-0.25667 -1.98973,0.62775 -19.41279,9.91146 -5.82084,3.10157 -14.39334,7.66127 -19.05,10.13268 -4.65667,2.4714 -14.28542,7.59222 -21.39723,11.37959 l -12.93056,6.88614 -38.75139,32.52766 c -42.43893,35.62297 -43.42921,36.47306 -42.10277,36.14236 0.48507,-0.12093 12.39132,-4.98739 26.45833,-10.81437 z m -25.88654,-2.15949 c 7.73767,-6.49813 27.5438,-23.14003 44.01364,-36.98202 l 29.94515,-25.16723 11.76806,-35.10139 c 6.47243,-19.30576 11.7693,-35.29982 11.77082,-35.54236 10e-4,-0.24253 -0.14517,-0.44097 -0.32598,-0.44097 -0.1808,0 -6.64986,4.62816 -14.37569,10.2848 -7.72583,5.65663 -25.55633,18.70466 -39.62335,28.99561 -30.66212,22.43137 -31.84449,23.3056 -32.34668,23.9168 -0.31737,0.38626 -24.998118,78.40761 -25.753162,81.41148 -0.167364,0.66583 -0.09701,0.80684 0.322312,0.64594 0.295021,-0.11321 6.86722,-5.52253 14.60488,-12.02066 z m -65.482905,3.14974 c 0,-0.0778 -4.087813,-2.88378 -9.084028,-6.2357 -4.996216,-3.35192 -12.417779,-8.34097 -16.492362,-11.08682 -4.074583,-2.74584 -15.3458338,-10.31793 -25.0472231,-16.82686 -9.7013889,-6.50892 -22.1632649,-14.87861 -27.6930569,-18.5993 -5.574841,-3.751 -10.301072,-6.70049 -10.608363,-6.62034 -0.30481,0.0795 -4.194186,2.43848 -8.643056,5.24216 -4.448873,2.80369 -9.474838,5.9613 -11.168815,7.01691 -1.79366,1.11773 -3.045984,2.12821 -2.998612,2.41953 0.05077,0.31223 20.43378,8.63399 54.232736,22.14161 59.754603,23.88065 57.50278,22.99765 57.50278,22.54881 z m 40.942833,-19.74472 c -3.437658,-7.66188 -5.665054,-18.56125 -5.665054,-27.72092 0,-4.23786 1.199811,-8.85573 6.663249,-25.64574 4.88931,-15.02561 5.662415,-17.57286 6.532503,-21.52346 0.883757,-4.01264 1.248032,-9.63435 0.87866,-13.55997 -0.633893,-6.73693 -1.449843,-9.24498 -9.572491,-29.42362 -7.901069,-19.62819 -9.920705,-25.76051 -11.730656,-35.61841 -2.074538,-11.29896 -1.711508,-23.49302 1.040106,-34.93715 0.46652,-1.94027 1.803862,-6.85468 2.971874,-10.9209 1.680958,-5.85195 2.036346,-7.49834 1.704813,-7.89782 -0.572619,-0.68995 -6.530535,-0.31971 -10.151527,0.63086 -7.701866,2.02186 -18.165636,8.58102 -20.24947,12.69327 -2.559004,5.04995 -3.521244,10.5527 -2.524703,14.438 0.75529,2.9447 3.147084,7.52215 6.396693,12.24205 1.445148,2.09901 2.556944,3.88698 2.470655,3.97326 -0.252028,0.25203 -4.119037,-3.23049 -7.192384,-6.47727 -3.515763,-3.71416 -6.193004,-7.73775 -7.148869,-10.74395 -0.945311,-2.973 -1.224097,-7.99095 -0.669449,-12.04965 0.364836,-2.66974 0.358193,-3.26358 -0.03956,-3.5354 -0.763023,-0.52144 -8.017821,-0.0976 -9.89529,0.57811 -3.154095,1.13517 -6.106566,4.52252 -9.767465,11.20616 -2.376219,4.33823 -2.718004,4.06421 -1.260372,-1.01045 1.958266,-6.81757 3.677059,-10.32625 6.388301,-13.04081 3.043414,-3.04715 8.716695,-5.22333 14.762329,-5.66259 1.552222,-0.11278 3.18032,-0.42863 3.617994,-0.70189 0.440834,-0.27523 1.718994,-2.34148 2.865635,-4.63252 C 53.677403,90.795907 56.163531,80.128768 55.817314,68.853574 55.67113,64.092937 55.496932,62.716045 54.704794,60.060031 52.004901,51.007389 45.792417,43.153787 36.965974,37.635246 28.938589,32.616297 20.410348,26.107995 15.664503,21.379091 c -3.296518,-3.284753 -5.037879,-6.219924 -5.449899,-9.186143 -0.2818867,-2.029376 0.554204,-5.4696327 1.91442,-7.8772493 1.455268,-2.5758633 1.886645,-2.4179424 1.081909,0.3960707 -0.867749,3.0343581 -0.878427,6.1867236 -0.02727,8.0501386 1.505279,3.295463 8.216932,7.789203 18.742728,12.54905 4.389928,1.985161 10.261664,3.615464 17.826634,4.949606 6.183207,1.090461 17.531088,1.19254 21.860867,0.196652 9.668518,-2.223851 16.627282,-9.54642 24.948354,-26.2526528 l 3.559404,-7.1462335 -0.97137,-1.3204331 C 91.456211,-14.720987 87.571775,-25.493559 88.731606,-33.155845 c 0.857119,-5.662479 3.668875,-12.344331 8.771855,-20.845441 1.426753,-2.37684 2.729779,-4.321528 2.895609,-4.321528 0.33663,0 0.30606,0.08528 -1.914319,5.338995 -2.051646,4.854489 -3.915269,10.653224 -4.617435,14.367337 -1.337116,7.07267 -0.220845,12.233498 4.092939,18.922834 2.161405,3.351668 5.580245,7.584723 6.125835,7.584723 0.24501,0 0.87062,-0.725456 1.39025,-1.612124 1.41593,-2.416119 6.20421,-8.240251 8.59266,-10.451536 2.64292,-2.446875 6.37473,-4.942864 8.84738,-5.91749 5.95888,-2.348771 14.09697,-2.664887 26.7687,-1.039804 1.78425,0.228821 3.24409,0.529096 3.24409,0.667278 0,0.138182 -2.89719,0.352778 -6.4382,0.47688 -10.19191,0.357196 -16.94384,1.685942 -21.39925,4.211266 -5.01701,2.843648 -10.15555,9.983563 -13.81503,19.1957728 -0.955,2.4040641 -1.10079,3.2592468 -1.27845,7.49926527 -0.6307,15.05164093 4.03682,28.43728193 13.11859,37.62186893 6.54854,6.622669 14.46837,10.225465 24.52067,11.154661 12.64587,1.168929 27.04664,-3.801576 32.24587,-11.129832 3.02528,-4.264106 5.92619,-11.132326 8.32906,-19.719957 1.21961,-4.358752 1.99383,-5.47594 1.58912,-2.293055 -2.13539,16.793626 -4.55315,24.15431 -9.76352,29.724208 -4.16254,4.44977 -9.15657,7.547752 -17.64574,10.946296 -8.10788,3.245898 -14.25988,6.364863 -19.92599,10.102148 -3.9626,2.613678 -5.74738,4.092088 -9.46908,7.843658 -6.76457,6.818859 -9.286,11.558933 -10.61621,19.957517 -0.79932,5.046704 -0.52809,15.748934 0.54555,21.526864 0.41462,2.23132 0.84743,4.57647 0.9618,5.21144 0.34844,1.9346 5.42543,6.09168 9.80535,8.02868 5.09635,2.25385 10.90586,1.65423 20.46775,-2.11255 4.90541,-1.93241 4.91634,-1.56295 0.0488,1.65012 -4.53694,2.99486 -10.31331,5.76177 -13.51626,6.47436 -4.63752,1.03175 -11.31413,0.0519 -16.05487,-2.35617 -0.71638,-0.36389 -1.54857,-0.56719 -1.84931,-0.45179 -1.10336,0.4234 -2.53431,7.15563 -2.15916,10.15822 0.42359,3.39031 4.08779,8.29764 9.86342,13.20972 0.95162,0.80933 1.63033,1.5714 1.50826,1.69347 -0.343,0.343 -7.16293,-3.5868 -10.09005,-5.81411 -3.21756,-2.44832 -5.42443,-5.19782 -6.41617,-7.99381 -0.96244,-2.71335 -1.30194,-9.63118 -0.67836,-13.82257 l 0.43177,-2.90217 -1.88589,-2.74375 c -2.49619,-3.63165 -8.5448,-9.86818 -12.28604,-12.66775 -3.398684,-2.54322 -9.633258,-5.88125 -10.686212,-5.72145 -0.586923,0.0891 -1.029215,1.25798 -2.776516,7.33789 -4.219964,14.68381 -5.028756,19.33636 -5.028756,28.92778 0,14.35328 2.175111,22.49643 13.288688,49.75001 7.698156,18.87802 8.978586,23.24377 9.321426,31.7822 0.37768,9.40609 -0.5851,13.98557 -7.090798,33.72732 -7.576983,22.99261 -7.819232,24.15814 -7.426195,35.72936 0.15488,4.55965 0.294153,10.83027 0.309499,13.93472 l 0.02791,5.64444 -1.1511,0.11088 c -1.10592,0.10654 -1.191475,0.0208 -2.17968,-2.18161 z M 112.89217,103.16058 c 0.007,-14.876803 3.41627,-23.773771 12.85968,-33.561001 3.6145,-3.746101 7.16935,-6.76626 11.22935,-9.540335 2.52798,-1.727292 2.94426,-2.217568 2.10144,-2.475011 -5.14962,-1.572998 -7.02,-2.268926 -10.03485,-3.733751 -9.11844,-4.430374 -16.8313,-12.354722 -21.79377,-22.391352 -2.19734,-4.444136 -4.01532,-9.423531 -4.76559,-13.052778 -0.63853,-3.08877 -0.71932,-3.351389 -1.03106,-3.351389 -0.16807,0 -0.99849,1.150483 -1.845367,2.556627 -5.035702,8.361193 -11.479266,15.224925 -17.272382,18.398669 -5.752998,3.151763 -11.067387,4.245529 -20.691712,4.258607 -3.929069,0.0053 -7.143757,0.118554 -7.14375,0.251587 4e-6,0.133036 0.953329,1.561786 2.118501,3.175 2.34254,3.243326 5.167687,8.748702 6.302502,12.281732 3.321382,10.340474 2.696369,24.04212 -1.727475,37.870105 -0.797539,2.492933 -1.379957,4.602717 -1.294264,4.68841 0.08569,0.08569 1.326854,-0.307919 2.758137,-0.874695 12.057655,-4.774727 23.492619,-3.934128 36.348837,2.672055 3.710163,1.90647 10.075213,6.3935 12.092413,8.52452 0.56988,0.60203 1.20488,1.09432 1.41111,1.09397 0.25165,-3.5e-4 0.37605,-2.23379 0.37825,-6.79097 z M 88.789317,77.66833 C 83.64468,76.237029 80.233316,71.394795 80.70499,66.19309 c 1.006376,-11.098491 15.520494,-13.938067 20.41584,-3.994203 1.00222,2.035792 1.16374,2.724594 1.14104,4.865871 -0.0338,3.18818 -1.01814,5.532437 -3.238957,7.713817 -2.89095,2.839618 -6.624419,3.893873 -10.233596,2.889755 z"
         id="path4766"
         inkscape:connector-curvature="0" />
      <path
         style="fill:#6698cb;stroke-width:0.35277778"
         d="m 88.652139,312.90429 c -1.297654,-1.4593 -4.05354,-9.51304 -5.180835,-15.14041 -0.848741,-4.23683 -1.45047,-10.13891 -1.45047,-14.22696 0,-4.23786 1.199811,-8.85573 6.663249,-25.64574 4.88931,-15.02561 5.662415,-17.57286 6.532503,-21.52346 0.883757,-4.01264 1.248032,-9.63435 0.87866,-13.55997 -0.633893,-6.73693 -1.449843,-9.24498 -9.572491,-29.42362 -7.901069,-19.62819 -9.920705,-25.76051 -11.730656,-35.61841 -2.031622,-11.06522 -1.711205,-23.30092 0.901041,-34.40798 0.387879,-1.64924 1.738231,-6.61551 3.00078,-11.03618 1.26255,-4.42066 2.186577,-8.21388 2.053389,-8.42938 -0.362634,-0.58676 -7.19123,-0.0963 -10.389944,0.74618 -7.714333,2.03193 -18.166462,8.585 -20.24947,12.69562 -2.559004,5.04995 -3.521244,10.5527 -2.524703,14.438 0.749014,2.92023 3.09336,7.42013 6.369043,12.22515 1.446628,2.12203 2.565252,3.92321 2.485831,4.00264 -0.241064,0.24106 -4.171478,-3.31155 -7.17991,-6.48975 -3.515763,-3.71416 -6.193004,-7.73775 -7.148869,-10.74395 -0.945311,-2.973 -1.224097,-7.99095 -0.669449,-12.04965 0.364836,-2.66974 0.358193,-3.26358 -0.03956,-3.5354 -0.763023,-0.52144 -8.017821,-0.0976 -9.89529,0.57811 -3.155463,1.13566 -6.106213,4.52197 -9.772111,11.21458 -1.52116,2.77709 -2.344741,3.52258 -1.948663,1.76389 1.670364,-7.41684 4.0966,-12.84117 7.076641,-15.82121 3.050255,-3.05025 8.720928,-5.22566 14.766926,-5.66495 1.552222,-0.11278 3.18032,-0.42863 3.617994,-0.70189 0.440834,-0.27523 1.718994,-2.34148 2.865635,-4.63252 C 53.677403,90.795907 56.163531,80.128768 55.817314,68.853574 55.67113,64.092937 55.496932,62.716045 54.704794,60.060031 52.004901,51.007389 45.792417,43.153787 36.965974,37.635246 28.938589,32.616297 20.410348,26.107995 15.664503,21.379091 11.661307,17.390186 10.239436,14.659305 10.273681,11.025342 c 0.02635,-2.7982479 1.050893,-5.9556407 2.447,-7.5411863 0.986134,-1.1199389 1.028775,-0.9025432 0.332095,1.6930299 -0.716016,2.6676068 -0.661085,5.8508864 0.130884,7.5847224 1.505278,3.295463 8.216932,7.789203 18.742728,12.54905 4.389928,1.985161 10.261663,3.615464 17.826634,4.949606 6.183207,1.090461 17.531088,1.19254 21.860867,0.196652 9.668517,-2.223851 16.627281,-9.54642 24.948353,-26.2526528 l 3.559408,-7.1462335 -0.971373,-1.3204331 C 91.456211,-14.720987 87.571775,-25.493559 88.731606,-33.155845 c 0.479957,-3.170804 1.902132,-7.631212 3.64467,-11.430902 1.87252,-4.083111 7.498825,-13.682318 8.041664,-13.720117 0.12598,-0.0088 -0.628091,2.072422 -1.675711,4.624876 -6.949521,16.932014 -7.115962,24.166301 -0.781974,33.98834 2.161405,3.351668 5.580245,7.584723 6.125835,7.584723 0.24501,0 0.87062,-0.725456 1.39025,-1.612124 1.41593,-2.416119 6.20421,-8.240251 8.59266,-10.451536 4.20634,-3.894328 8.20248,-6.07903 13.24999,-7.243807 3.46759,-0.800192 14.71062,-0.789808 20.48025,0.01892 2.32027,0.325231 4.34434,0.591329 4.49791,0.591329 0.15359,0 0.27924,0.133772 0.27924,0.297272 0,0.1635 -2.81781,0.399514 -6.2618,0.524476 -10.04999,0.364655 -16.80158,1.703955 -21.22287,4.209944 -5.01701,2.843648 -10.15555,9.983563 -13.81503,19.1957728 -0.955,2.4040641 -1.10079,3.2592468 -1.27845,7.49926527 -0.6307,15.05164093 4.03682,28.43728193 13.11859,37.62186893 6.54854,6.622669 14.46837,10.225465 24.52067,11.154661 12.68299,1.172362 27.01728,-3.790139 32.28956,-11.178575 2.97535,-4.169576 6.06739,-11.702549 8.8708,-21.611491 0.71325,-2.521067 1.30873,-2.930903 1.02514,-0.705556 -2.21417,17.374655 -4.51323,24.441478 -9.78497,30.076986 -4.16254,4.44977 -9.15657,7.547752 -17.64574,10.946296 -8.10788,3.245898 -14.25988,6.364863 -19.92599,10.102148 -3.9626,2.613678 -5.74738,4.092088 -9.46908,7.843658 -6.76457,6.818859 -9.286,11.558933 -10.61621,19.957517 -0.79932,5.0467 -0.52809,15.74893 0.54555,21.52686 0.41462,2.23132 0.84743,4.57647 0.9618,5.21144 0.34844,1.9346 5.42543,6.09168 9.80535,8.02868 5.09287,2.25231 10.23007,1.74645 20.16633,-1.98578 2.05883,-0.77333 3.81574,-1.33365 3.90423,-1.24516 0.34972,0.34972 -5.60648,4.21034 -9.79393,6.34812 -5.46773,2.79138 -8.60094,3.58554 -13.00315,3.29581 -3.07193,-0.20218 -7.7894,-1.46761 -10.38264,-2.78509 -0.74642,-0.37921 -1.57124,-0.60731 -1.83295,-0.50688 -1.04558,0.40122 -2.48308,7.34245 -2.12091,10.24117 0.42171,3.37527 3.72108,7.81281 9.83571,13.2287 0.93638,0.82938 1.6285,1.58197 1.53804,1.67243 -0.23254,0.23254 -5.24382,-2.4686 -8.17944,-4.40882 -3.14074,-2.07578 -6.52664,-5.44965 -7.50247,-7.47582 -1.31819,-2.737 -1.84614,-5.53421 -1.84614,-9.78121 0,-2.20169 0.17936,-5.08914 0.39858,-6.41656 l 0.39858,-2.41349 -1.89789,-2.76109 c -2.50117,-3.63878 -8.54217,-9.87302 -12.29803,-12.69144 -3.884773,-2.91514 -10.563622,-6.33635 -11.130472,-5.70152 -0.472874,0.52958 -5.205949,17.2904 -5.953506,21.08262 -1.483939,7.52776 -1.89587,17.92895 -0.971025,24.51806 1.568651,11.17593 3.689463,17.87164 12.570694,39.6875 8.013919,19.68539 9.257539,23.89377 9.602939,32.4961 0.37768,9.40609 -0.5851,13.98557 -7.090798,33.72732 -7.576983,22.99261 -7.819232,24.15814 -7.426195,35.72936 0.15488,4.55965 0.294153,10.83027 0.309499,13.93472 l 0.02791,5.64444 -0.900353,0.10488 c -0.530503,0.0618 -1.131958,-0.15554 -1.464176,-0.52916 z M 112.88889,103.33727 c 0,-7.776997 0.52885,-11.621199 2.36588,-17.197585 3.08943,-9.37811 10.47323,-18.236681 21.76569,-26.11296 2.45981,-1.715675 2.85045,-2.112084 2.29306,-2.32694 -0.36952,-0.142434 -2.02123,-0.673608 -3.67046,-1.180384 -12.0788,-3.711568 -22.29046,-12.725858 -28.38904,-25.060271 -2.19734,-4.444136 -4.01532,-9.423531 -4.76559,-13.052778 -0.63853,-3.08877 -0.71932,-3.351389 -1.03106,-3.351389 -0.16807,0 -0.99849,1.150483 -1.845367,2.556627 -5.035702,8.361193 -11.479266,15.224925 -17.272382,18.398669 -5.80191,3.178556 -11.067464,4.251992 -20.868094,4.254158 -4.026076,0.0011 -7.320139,0.03572 -7.320139,0.0774 0,0.04168 0.78401,1.111602 1.742246,2.377609 6.138923,8.11064 9.193866,17.243287 9.193866,27.484754 0,7.361315 -1.409806,15.882472 -3.934079,23.778372 -0.77319,2.418539 -1.335691,4.467455 -1.249998,4.553148 0.08569,0.08569 1.326854,-0.307919 2.758137,-0.874695 9.987192,-3.95484 19.74885,-4.011232 30.118996,-0.173994 6.050496,2.238852 14.840054,7.725159 18.501844,11.548559 0.66865,0.69817 1.30365,1.26924 1.41111,1.26906 0.10746,-1.8e-4 0.19538,-3.13549 0.19538,-6.96736 z M 89.051466,77.73685 C 83.664055,76.227314 80.22626,71.472603 80.70499,66.19309 c 1.006376,-11.098491 15.520494,-13.938067 20.41584,-3.994203 1.00222,2.035792 1.16374,2.724594 1.14104,4.865871 -0.0338,3.18818 -1.01814,5.532437 -3.238957,7.713817 -2.802085,2.75233 -6.641377,3.891351 -9.971447,2.958275 z"
         id="path4764"
         inkscape:connector-curvature="0" />
    </g>
  </g>
</svg>
