<?xml version="1.0" encoding="UTF-8" standalone="no"?>
<!-- Created with Inkscape (http://www.inkscape.org/) -->

<svg
   xmlns:dc="http://purl.org/dc/elements/1.1/"
   xmlns:cc="http://creativecommons.org/ns#"
   xmlns:rdf="http://www.w3.org/1999/02/22-rdf-syntax-ns#"
   xmlns:svg="http://www.w3.org/2000/svg"
   xmlns="http://www.w3.org/2000/svg"
   xmlns:sodipodi="http://sodipodi.sourceforge.net/DTD/sodipodi-0.dtd"
   xmlns:inkscape="http://www.inkscape.org/namespaces/inkscape"
   width="435mm"
   height="420mm"
   viewBox="0 0 435 420"
   version="1.1"
   id="svg8"
   inkscape:version="0.92.2 (5c3e80d, 2017-08-06)"
   sodipodi:docname="drawing.svg">
  <defs
     id="defs2" />
  <sodipodi:namedview
     id="base"
     pagecolor="#ffffff"
     bordercolor="#666666"
     borderopacity="1.0"
     inkscape:pageopacity="0.0"
     inkscape:pageshadow="2"
     inkscape:zoom="0.35"
     inkscape:cx="-48.571429"
     inkscape:cy="548.57143"
     inkscape:document-units="mm"
     inkscape:current-layer="layer1"
     showgrid="false"
     inkscape:window-width="1920"
     inkscape:window-height="1016"
     inkscape:window-x="0"
     inkscape:window-y="27"
     inkscape:window-maximized="1"
     inkscape:snap-page="true" />
  <metadata
     id="metadata5">
    <rdf:RDF>
      <cc:Work
         rdf:about="">
        <dc:format>image/svg+xml</dc:format>
        <dc:type
           rdf:resource="http://purl.org/dc/dcmitype/StillImage" />
        <dc:title></dc:title>
      </cc:Work>
    </rdf:RDF>
  </metadata>
  <g
     inkscape:label="Layer 1"
     inkscape:groupmode="layer"
     id="layer1"
     transform="translate(0,123)">
    <g
       id="g4028"
       transform="translate(113.51886,-31.516065)"
       style="image-rendering:auto">
      <path
         style="fill:#fdfdfd;stroke-width:0.35277778"
         d="M -113.51886,311.35005 V 294.0257 l 0.79375,0.1935 c 0.43656,0.1064 42.042632,7.75374 92.457933,16.99408 50.415301,9.24034 92.007802,16.93916 92.427781,17.10852 0.437913,0.17657 -38.996622,0.31743 -92.457933,0.33024 l -93.221531,0.0224 z m 200.377784,15.73837 c 27.047316,-3.98716 165.316296,-26.59023 167.041196,-27.30651 0.69815,-0.28995 68.11882,-99.77898 67.81977,-100.07801 -0.0851,-0.0851 -5.45768,1.34062 -11.93909,3.16829 -10.08137,2.8428 -59.53605,16.82749 -61.48949,17.38785 -0.5214,0.14958 -0.63073,0.0455 -0.49551,-0.47158 0.0954,-0.36492 6.08496,-9.82881 13.31009,-21.03086 7.2251,-11.20206 13.08351,-20.5265 13.01867,-20.721 -0.0652,-0.19571 -0.82656,0.02 -1.70494,0.48316 -1.78986,0.94369 -76.37453,40.61901 -85.3718,45.41352 -3.20146,1.70601 -5.9371,2.98648 -6.07919,2.84549 -0.1421,-0.141 6.26469,-19.69809 14.23732,-43.46022 7.97262,-23.76213 14.57646,-43.48168 14.6752,-43.82123 0.40562,-1.39496 3.92857,-3.91432 -61.4625,43.9536 -7.95514,5.82336 -17.13455,12.55349 -20.39869,14.95583 -3.26413,2.40235 -6.15502,4.45242 -6.4242,4.55571 -0.26917,0.10329 -6.72664,-3.61158 -14.34992,-8.25527 -7.623292,-4.64369 -14.222141,-8.63496 -14.664119,-8.8695 l -0.803589,-0.42642 0.227471,4.86838 c 0.13818,2.95738 0.403698,5.14532 0.67642,5.57392 0.24692,0.38806 4.909591,3.40431 10.361487,6.70278 5.4519,3.29847 9.91444,6.18647 9.91676,6.41778 0.002,0.23131 -3.40494,2.91681 -7.57168,5.96779 -7.190269,5.26487 -7.602557,5.62953 -8.099885,7.16416 -0.288202,0.88932 -6.101606,19.39694 -12.918681,41.12805 -6.817074,21.73111 -13.161204,41.95163 -14.098069,44.93447 -0.936865,2.98287 -1.844732,5.56471 -2.017483,5.73747 -0.29753,0.29753 -5.394985,-3.07626 -56.184439,-37.1862 -10.3804864,-6.97145 -23.715487,-15.92089 -29.633334,-19.88758 -42.923179,-28.77116 -55.925585,-37.58696 -55.996616,-37.96643 -0.04474,-0.23898 5.508808,-4.16513 12.341207,-8.72479 6.832403,-4.55965 28.491626,-19.04559 48.131609,-32.19097 19.6399822,-13.14538 35.888649,-23.90069 36.108147,-23.90069 0.219498,0 11.344099,6.6675 24.72133,14.81666 13.377235,8.14917 24.475963,14.81667 24.663842,14.81667 0.187875,0 0.341595,-0.24535 0.341595,-0.54522 0,-0.99424 -4.195061,-11.56806 -4.837296,-12.19259 -1.155175,-1.12334 -44.36349,-27.26931 -45.080761,-27.27902 -0.388056,-0.005 -14.1199314,8.97731 -30.5152792,19.96126 -16.3953478,10.98394 -41.4778488,27.77433 -55.7388908,37.31197 -14.261042,9.53765 -25.974336,17.54161 -26.029542,17.78659 -0.05545,0.24605 4.716863,3.67471 10.662212,7.66024 5.919422,3.96815 10.727092,7.42143 10.683708,7.67395 -0.04338,0.25252 -7.698878,5.27825 -17.012212,11.16829 -9.313334,5.89003 -16.933332,10.89877 -16.933332,11.13053 0,0.23175 5.476873,2.61082 12.170832,5.28683 6.903485,2.75974 12.207967,5.07241 12.256636,5.34367 0.06975,0.38876 -34.428378,26.28557 -35.569908,26.70136 -0.19502,0.071 -0.32284,-76.15556 -0.32284,-192.52846 V -91.483925 H 104.32142 322.16171 V 118.59524 328.6744 L 199.30684,328.6486 76.45198,328.6225 86.858924,327.08841 Z M 73.598441,275.93413 c -0.01721,-3.10445 -0.159053,-9.29824 -0.315175,-13.76398 -0.398695,-11.40438 -0.240919,-12.17772 7.054067,-34.57484 6.498901,-19.95298 7.579925,-24.66359 7.579925,-33.02987 0,-8.99193 -1.214533,-13.32138 -9.683482,-34.51881 -11.222229,-28.08876 -13.035884,-34.91295 -13.032272,-49.03611 0.0028,-10.52795 0.680371,-14.054905 6.524135,-33.954863 0.821743,-2.7983 0.941377,-2.835293 4.197174,-1.297926 6.160999,2.909182 13.640682,9.121179 18.424596,15.301916 3.490694,4.509918 3.569127,4.701353 3.11784,7.60997 -0.489952,3.157823 -0.480752,9.337603 0.01743,11.706173 1.174937,5.58615 5.129471,9.81978 13.395221,14.34061 1.47176,0.80496 2.90051,1.46336 3.175,1.46312 0.27449,-2.5e-4 -1.28845,-1.7436 -3.47321,-3.87412 -6.10211,-5.95063 -7.85666,-9.23879 -7.34465,-13.76436 0.27233,-2.4071 1.38669,-6.615 1.88334,-7.11165 0.22448,-0.22448 1.06863,-0.0417 2.41973,0.52406 6.05065,2.53344 11.10905,3.2403 15.76901,2.20356 1.54722,-0.34423 4.31901,-1.39981 6.4967,-2.47414 4.00063,-1.973645 10.32455,-5.95707 10.32455,-6.503407 0,-0.177006 -2.73844,0.606824 -6.08542,1.741848 -3.34981,1.135983 -7.2922,2.224556 -8.76993,2.421558 -4.61385,0.615093 -8.53321,-0.447153 -13.04533,-3.535623 -3.61293,-2.47298 -5.2047,-4.093545 -5.65183,-5.754035 -1.86713,-6.933988 -2.64671,-19.95128 -1.5932,-26.602895 1.32882,-8.389799 4.40755,-14.119782 11.0397,-20.546536 4.78159,-4.63351 9.8954,-8.277087 16.69768,-11.897077 3.4183,-1.819127 9.68472,-4.598032 12.89727,-5.719421 6.08736,-2.124882 12.9166,-6.405714 16.79334,-10.526712 3.77812,-4.016163 5.80419,-8.1474874 7.54687,-15.3886675 1.62472,-6.7510518 2.89475,-16.9935915 1.89416,-15.2759795 -0.19691,0.338014 -0.89365,2.43484 -1.5483,4.659619 -3.35905,11.41539158 -6.72176,17.8633085 -11.32475,21.714943 -2.24977,1.882528 -7.96166,4.668644 -11.86738,5.788597 -3.53974,1.015008 -9.8882,1.970881 -13.08968,1.970881 -18.15072,0 -32.81947,-10.9700941 -38.825089,-29.035523 -1.894547,-5.698963 -2.508624,-10.018808 -2.492093,-17.531143 0.01468,-6.666886 0.04584,-6.960814 1.009915,-9.525 3.171973,-8.436596 8.366687,-15.924354 13.310247,-19.185636 4.03811,-2.663953 11.13106,-4.245055 20.94718,-4.669373 2.90261,-0.12547 5.49919,-0.345321 5.77017,-0.488559 1.34276,-0.709758 -11.59236,-1.933024 -17.28783,-1.634899 -9.61278,0.503172 -14.567,2.695641 -21.128476,9.350311 -2.732225,2.771031 -6.288581,7.256297 -8.149526,10.278156 -0.262943,0.426974 -0.693378,0.133399 -2.228843,-1.520169 -3.335042,-3.591556 -6.661274,-9.08317 -8.160428,-13.472887 -1.875409,-5.491429 -0.567443,-13.515357 4.050693,-24.849647 0.983457,-2.413695 1.788104,-4.62735 1.788104,-4.919232 0,-0.836527 -1.58846,1.504336 -4.400956,6.485546 -8.575827,15.188647 -9.131498,23.509199 -2.461966,36.865278 1.550261,3.104476 5.444501,9.260815 6.123419,9.680409 0.860841,0.532028 0.240827,2.445963 -2.751738,8.494363 -6.25766,12.64763 -12.974564,21.0759497 -19.262926,24.1709856 -4.379197,2.1553699 -6.94803,2.59137499 -15.345834,2.60461826 -8.421857,0.0132997 -12.423331,-0.51049766 -21.34306,-2.79374596 -8.057024,-2.062413 -19.7349289,-7.9209299 -24.9642105,-12.5239289 -2.9699656,-2.614266 -3.8265842,-6.182201 -2.5313888,-10.543592 0.8066758,-2.716375 0.5110551,-3.381742 -0.639191,-1.43866 -1.4997818,2.533537 -2.1001391,4.561321 -2.1450865,7.245311 -0.060163,3.592509 1.3239503,6.269045 5.3576927,10.360473 C 2.7917267,-5.7704015 12.843481,1.8882346 19.602082,5.8941144 25.68897,9.5018704 31.653861,15.910957 34.82237,22.247837 c 2.721634,5.443153 3.400192,8.279035 3.615175,15.10882 0.263638,8.375424 -1.168263,16.718131 -4.316088,25.146917 -1.749358,4.684176 -5.352599,11.730457 -6.300446,12.320774 -0.416856,0.259616 -2.027922,0.564307 -3.580144,0.67709 C 18.09673,75.947857 12.390849,78.16019 9.3363862,81.280326 7.1114978,83.553055 4.7579408,88.193063 3.471713,92.842462 1.6912964,99.278237 1.8812425,99.881021 4.2775492,95.399752 7.8006245,88.811355 10.970753,85.14186 14.118074,84.009129 c 1.877469,-0.675707 9.132267,-1.099552 9.89529,-0.578111 0.398081,0.272045 0.404255,0.866743 0.03689,3.55497 -0.553099,4.047377 -0.268312,8.993967 0.69511,12.073583 0.402029,1.285099 1.531895,3.563459 2.510815,5.063009 2.479022,3.79748 10.862077,12.35453 11.489076,11.72753 0.101392,-0.10139 -0.985583,-1.91943 -2.415501,-4.04008 -6.674306,-9.89837 -7.819158,-14.572655 -5.362593,-21.894812 1.494261,-4.453883 2.469804,-5.906001 5.7058,-8.493209 5.120308,-4.093739 10.991028,-7.147398 16.421919,-8.541879 3.129936,-0.803667 9.314699,-1.267908 10.054795,-0.754733 0.358919,0.248871 -0.06536,2.150297 -1.992451,8.929137 -4.082277,14.360077 -5.021887,19.964936 -5.021887,29.955986 0,15.24356 2.698056,25.6039 13.596907,52.21111 8.533807,20.83346 9.825316,25.87564 9.005842,35.15968 -0.48591,5.50502 -1.88274,10.74987 -7.014673,26.33884 -2.502186,7.60075 -5.144146,16.19699 -5.87103,19.10276 -1.311653,5.24346 -1.319936,5.3218 -1.100469,10.40695 0.362306,8.39477 1.739325,15.49742 4.324022,22.30325 1.864325,4.90904 2.112186,5.28182 3.427144,5.15454 l 1.126677,-0.10908 -0.03133,-5.64444 z M 92.652213,76.065226 C 85.72951,70.017539 76.44194,65.30663 67.985313,63.5535 61.50876,62.210856 52.637447,63.071934 45.819646,65.704972 44.080271,66.376721 42.588822,66.858009 42.505316,66.774506 42.421813,66.691 42.93018,64.838797 43.635023,62.6585 46.523194,53.724494 47.495848,47.628745 47.487477,38.514685 47.482361,32.958573 47.35394,31.26314 46.736744,28.604117 45.227921,22.103756 42.574076,16.381041 38.648629,11.163009 37.612348,9.7854967 36.764478,8.5858618 36.764478,8.4971558 c 0,-0.088702 2.341563,-0.060332 5.203473,0.063052 14.144287,0.609794 23.69196,-2.7423921 31.546642,-11.0760227 2.801867,-2.9727137 6.09515,-7.3335197 8.456352,-11.1974881 1.002146,-1.639954 1.953263,-2.981734 2.11359,-2.981734 0.160327,0 0.367418,0.357188 0.460199,0.79375 0.09278,0.436563 0.512131,2.2225 0.931884,3.96875 2.802653,11.6595703 9.980337,22.890798 18.914102,29.595695 4.83176,3.626298 9.54411,5.852019 17.33435,8.187302 0.81657,0.244782 0.3303,0.724465 -3.46892,3.421948 -10.50118,7.455941 -17.25707,15.711858 -20.317463,24.828599 -1.751771,5.218437 -2.299194,8.917689 -2.466569,16.668005 -0.08561,3.96391 -0.205677,7.257137 -0.266824,7.318284 -0.06115,0.06115 -1.210035,-0.848784 -2.553081,-2.02207 z M 78.599155,45.227866 c 7.280582,-3.247926 8.505684,-13.563078 2.202582,-18.54539 -5.581689,-4.412075 -13.619315,-2.381663 -16.643259,4.204307 -0.564833,1.230171 -0.748725,2.323842 -0.748725,4.452902 0,2.12906 0.183892,3.222731 0.748725,4.452902 2.574869,5.607915 8.8008,7.951273 14.440677,5.435279 z M 104.33906,314.94352 c 0.18433,-0.17893 16.84514,-7.17811 37.02403,-15.55376 20.17889,-8.37562 45.2956,-18.80507 55.8149,-23.17659 l 19.126,-7.94818 11.68075,-18.10643 11.68077,-18.10643 1.64877,-0.53433 c 0.90685,-0.29389 14.34882,-4.11949 29.87104,-8.50135 15.52222,-4.38185 28.50004,-8.05021 28.83958,-8.15191 0.33955,-0.10169 0.61736,-0.0152 0.61736,0.19219 0,0.775 -51.26647,76.28948 -51.99581,76.58874 -0.40947,0.16803 -5.66571,1.11542 -11.68058,2.10531 -6.01486,0.9899 -22.76298,3.76516 -37.21805,6.16723 -49.80115,8.2757 -93.56637,15.35084 -94.95682,15.35084 -0.48755,0 -0.65954,-0.12383 -0.45194,-0.32533 z M -28.146635,300.78453 c -33.663821,-6.18549 -61.564134,-11.33372 -62.000696,-11.44051 -0.436563,-0.10678 -0.783876,-0.38957 -0.771808,-0.62844 0.01688,-0.33411 13.879937,-10.77771 22.722407,-17.11773 l 1.127623,-0.80849 50.946655,20.33361 c 28.02066,11.18352 51.097467,20.47703 51.281793,20.65225 0.202587,0.19262 -0.146237,0.30618 -0.881944,0.28713 -0.669396,-0.0173 -28.7602094,-5.09235 -62.42403,-11.27782 z M 94.620036,308.11 c 1.085635,-1.09206 49.287574,-41.6464 72.495834,-60.99386 l 8.46667,-7.05819 36.11018,-19.19177 c 19.8606,-10.55548 36.26723,-19.19177 36.45914,-19.19177 0.49505,0 0.70114,-0.32799 -19.50776,31.04275 l -18.32262,28.44261 -3.08197,1.26569 c -1.69508,0.6961 -27.60885,11.4615 -57.58614,23.92309 -29.97729,12.46159 -54.901043,22.73529 -55.386112,22.83044 -0.841474,0.1651 -0.825285,0.11603 0.352778,-1.06899 z m -14.816667,-0.0935 c 0,-0.55143 24.078691,-77.63627 25.237491,-80.79457 0.40582,-1.10605 1.07904,-1.83593 2.90306,-3.14738 1.3061,-0.93906 20.67171,-15.09989 43.03468,-31.4685 22.36297,-16.3686 40.89703,-29.85208 41.18681,-29.96327 0.28977,-0.1112 0.52685,-0.12383 0.52685,-0.0281 0,0.0958 -5.33085,16.1068 -11.84633,35.5801 -10.58546,31.63755 -11.96536,35.52399 -12.96459,36.51451 -1.11618,1.10646 -86.916161,73.18039 -87.676725,73.65044 -0.238845,0.1476 -0.401246,0.009 -0.401246,-0.34326 z M -9.0966343,284.36044 c -20.6639587,-8.26622 -45.6623507,-18.25237 -55.5519787,-22.19149 -9.889628,-3.93907 -18.03282,-7.31699 -18.095979,-7.50646 -0.127549,-0.38265 22.595752,-14.88808 23.322735,-14.88808 0.25183,0 6.161465,3.82292 13.13252,8.4954 55.4862031,37.19059 74.952598,50.29004 75.403776,50.74124 0.275237,0.2752 0.239067,0.38224 -0.128711,0.38086 -0.28134,0 -17.418403,-6.76522 -38.0823623,-15.03147 z"
         id="path4034"
         inkscape:connector-curvature="0" />
      <path
         style="fill:#9e9e9d;stroke-width:0.35277778"
         d="m 72.160604,328.3218 c -0.419979,-0.16936 -42.01248,-7.86489 -92.427781,-17.10122 -50.415301,-9.23632 -91.995193,-16.90613 -92.399763,-17.04403 -0.60777,-0.20719 2.38003,-2.54935 17.195713,-13.47992 10.208737,-7.5317 17.894261,-13.43512 17.845302,-13.70739 -0.04876,-0.27122 -5.355012,-2.5846 -12.256823,-5.34367 -6.693959,-2.67601 -12.170832,-5.05508 -12.170832,-5.28683 0,-0.23176 7.619998,-5.2405 16.933332,-11.13053 9.313334,-5.89004 16.96883,-10.91577 17.012212,-11.16829 0.04338,-0.25252 -4.764286,-3.7058 -10.683708,-7.67395 -5.945349,-3.98553 -10.717659,-7.41419 -10.662212,-7.66024 0.05521,-0.24498 11.7685,-8.24894 26.029542,-17.78659 14.261042,-9.53764 39.343543,-26.32803 55.7388908,-37.31197 C 8.7098246,152.64322 22.4417,143.66065 22.829756,143.66591 c 0.717271,0.01 43.925586,26.15568 45.080761,27.27902 0.642235,0.62453 4.837296,11.19835 4.837296,12.19259 0,0.29987 -0.15372,0.54522 -0.341595,0.54522 -0.187879,0 -11.286607,-6.6675 -24.663842,-14.81667 -13.377231,-8.14916 -24.501832,-14.81666 -24.72133,-14.81666 -0.219498,0 -16.4681648,10.75531 -36.108147,23.90069 -19.639983,13.14538 -41.299206,27.63132 -48.131609,32.19097 -6.832399,4.55966 -12.385943,8.48581 -12.341207,8.72479 0.07103,0.37947 13.073437,9.19527 55.996616,37.96643 5.917847,3.96669 19.2528476,12.91613 29.633334,19.88758 50.789454,34.10994 55.886909,37.48373 56.184439,37.1862 0.172751,-0.17276 1.080618,-2.7546 2.017483,-5.73747 0.936865,-2.98284 7.280995,-23.20336 14.098069,-44.93447 6.817075,-21.73111 12.630479,-40.23873 12.918681,-41.12805 0.497328,-1.53463 0.909616,-1.89929 8.099885,-7.16416 4.16674,-3.05098 7.574,-5.73648 7.57168,-5.96779 -0.002,-0.23131 -4.46486,-3.11931 -9.91676,-6.41778 -5.451896,-3.29847 -10.114567,-6.31472 -10.361487,-6.70278 -0.272722,-0.4286 -0.53824,-2.61654 -0.67642,-5.57392 l -0.227471,-4.86838 0.803589,0.42642 c 0.441978,0.23454 7.040827,4.22581 14.664119,8.8695 7.62328,4.64369 14.08075,8.35856 14.34992,8.25527 0.26918,-0.10329 3.16007,-2.15336 6.4242,-4.55571 6.43462,-4.73576 21.88376,-16.04852 58.08784,-42.53528 12.7739,-9.34533 23.38898,-16.99151 23.58907,-16.99151 0.46604,0 2.09182,-4.98568 -14.49092,44.43859 -7.97263,23.76213 -14.37942,43.31922 -14.23732,43.46022 0.14209,0.14099 2.87773,-1.13948 6.07919,-2.84549 8.99727,-4.79451 83.58194,-44.46983 85.3718,-45.41352 0.87838,-0.46312 1.63971,-0.67887 1.70494,-0.48316 0.0648,0.1945 -5.79357,9.51894 -13.01867,20.721 -7.22513,11.20205 -13.21466,20.66594 -13.31009,21.03086 -0.13522,0.51712 -0.0258,0.62116 0.49551,0.47158 1.95344,-0.56036 51.40812,-14.54505 61.48949,-17.38785 6.48141,-1.82767 11.854,-3.2534 11.93909,-3.16829 0.29905,0.29903 -67.12162,99.78806 -67.81977,100.07801 -1.83836,0.76341 -144.27558,24.01086 -168.452307,27.49345 -9.910445,1.42755 -11.944696,1.58775 -13.287209,1.04644 z m 48.840536,-15.51799 c 20.95026,-3.34839 47.30342,-7.66074 78.74668,-12.8858 14.45507,-2.40207 31.20319,-5.17733 37.21805,-6.16723 6.01487,-0.98989 11.27111,-1.93728 11.68058,-2.10531 0.72934,-0.29926 51.99581,-75.81374 51.99581,-76.58874 0,-0.2074 -0.27781,-0.29388 -0.61736,-0.19219 -0.33954,0.1017 -13.31736,3.77006 -28.83958,8.15191 -15.52222,4.38186 -28.96419,8.20746 -29.87104,8.50135 l -1.64877,0.53433 -11.68077,18.10643 -11.68075,18.10643 -19.126,7.94818 c -10.5193,4.37152 -35.63601,14.80097 -55.8149,23.17659 -20.17889,8.37565 -36.8397,15.37483 -37.02403,15.55376 -0.5886,0.57139 0.87735,0.38311 16.66208,-2.13971 z M 35.159339,311.77522 C 34.975013,311.6 11.898206,302.30649 -16.122454,291.12297 l -50.946655,-20.33361 -1.127623,0.80849 c -8.84247,6.34002 -22.705523,16.78362 -22.722407,17.11773 -0.01207,0.23887 0.335245,0.52166 0.771808,0.62844 2.534357,0.61997 123.421496,22.69236 124.424726,22.71833 0.735707,0.019 1.084531,-0.0945 0.881944,-0.28713 z M 149.65337,286.34855 c 29.97729,-12.46159 55.89106,-23.22699 57.58614,-23.92309 l 3.08197,-1.26569 18.32262,-28.44261 c 20.2089,-31.37074 20.00281,-31.04275 19.50776,-31.04275 -0.19191,0 -16.59854,8.63629 -36.45914,19.19177 l -36.11018,19.19177 -8.46667,7.05819 c -23.20826,19.34746 -71.410199,59.9018 -72.495834,60.99386 -1.178063,1.18502 -1.194252,1.23409 -0.352778,1.06899 0.485069,-0.0951 25.408822,-10.36885 55.386112,-22.83044 z m -25.96889,-14.38377 c 23.69323,-19.88084 43.58183,-36.6458 44.19686,-37.25548 0.99923,-0.99052 2.37913,-4.87696 12.96459,-36.51451 6.51548,-19.4733 11.84633,-35.48435 11.84633,-35.58011 0,-0.0957 -0.23708,-0.0831 -0.52685,0.0281 -0.28978,0.11119 -18.82384,13.59467 -41.18681,29.96327 -22.36297,16.36861 -41.72858,30.52943 -43.03468,31.4685 -1.82402,1.31144 -2.49724,2.04132 -2.90306,3.14738 -1.1588,3.15829 -25.237491,80.24313 -25.237491,80.79456 0,0.35193 0.162401,0.49085 0.401246,0.34325 0.220683,-0.13638 19.786621,-16.51413 43.479865,-36.39495 z m -94.570041,27.04627 c -0.451178,-0.4512 -19.9175729,-13.55065 -75.403776,-50.74124 -6.971055,-4.67248 -12.88069,-8.4954 -13.13252,-8.4954 -0.726983,0 -23.450284,14.50543 -23.322735,14.88808 0.06316,0.18947 8.206351,3.56739 18.095979,7.50646 9.889628,3.93912 34.88802,13.92527 55.5519787,22.19149 20.6639593,8.26625 37.8010223,15.03038 38.0823623,15.03147 0.367778,0 0.403948,-0.10566 0.128711,-0.38086 z M 70.31124,279.57331 c -0.551247,-1.22544 -1.101908,-2.62495 -1.223694,-3.11002 -0.121783,-0.48507 0.09231,-0.16757 0.475777,0.70556 1.542493,3.51218 1.92061,4.05359 2.910833,4.16768 l 0.961066,0.11077 0.110701,-5.40244 0.110705,-5.4024 -0.01344,5.46806 -0.01344,5.46805 -1.158127,0.11141 c -1.111427,0.10693 -1.198538,0.0215 -2.16039,-2.11667 z m -2.10875,-5.26133 c -0.216461,-0.62092 -0.38238,-1.30372 -0.368709,-1.51729 0.01369,-0.21361 0.25243,0.2328 0.53057,0.99197 0.278141,0.75918 0.444059,1.44195 0.368709,1.5173 -0.07535,0.0753 -0.314109,-0.37102 -0.53057,-0.99198 z m -1.582343,-5.85177 c -0.499597,-2.09825 -0.992402,-4.76747 -1.095124,-5.93164 -0.137439,-1.55762 -0.01189,-1.18494 0.475347,1.41111 0.364162,1.94028 0.928959,4.53754 1.255105,5.77166 0.326143,1.23416 0.521,2.31588 0.43301,2.40386 -0.08799,0.088 -0.568737,-1.55674 -1.068338,-3.65499 z m 6.586157,-0.46358 c 0,-1.06716 0.06614,-1.50372 0.146964,-0.97014 0.08083,0.53358 0.08083,1.4067 0,1.94028 -0.08083,0.53357 -0.146964,0.097 -0.146964,-0.97014 z m -0.31273,-8.99584 c 3.52e-4,-3.4925 0.05316,-4.87353 0.117319,-3.06896 0.06416,1.80457 0.06385,4.66207 -7.05e-4,6.35001 -0.06453,1.68794 -0.117017,0.21145 -0.116646,-3.28105 z m -7.805975,-0.35277 c 0.0028,-0.97014 0.07116,-1.32515 0.152249,-0.7889 0.08109,0.53624 0.07892,1.32999 -0.0048,1.76389 -0.08374,0.43389 -0.150079,-0.005 -0.147433,-0.97499 z m -0.359328,-6.17361 c -0.01591,-2.42699 0.167636,-4.76563 0.456879,-5.82084 0.265923,-0.97014 0.387106,-1.20826 0.269292,-0.52916 -0.11781,0.67909 -0.323405,3.29847 -0.456878,5.82083 l -0.242676,4.58611 -0.0266,-4.05694 z m 8.441094,-0.88195 c 0.0072,-0.58208 0.08625,-0.7775 0.175697,-0.43426 0.08944,0.34324 0.08356,0.81949 -0.01309,1.05834 -0.09664,0.23884 -0.169817,-0.042 -0.162627,-0.62408 z m 0.320809,-1.76389 c -0.01277,-0.38805 0.197672,-1.4993 0.467621,-2.46944 0.637621,-2.29147 0.669893,-1.29011 0.0398,1.23472 -0.266323,1.06715 -0.494658,1.62278 -0.507418,1.23472 z m 1.25137,-5.45541 c 0.232438,-1.33873 1.119441,-3.92978 1.151618,-3.36403 0.01104,0.19403 -0.291306,1.30528 -0.671869,2.46944 -0.380566,1.16417 -0.596452,1.56673 -0.479749,0.89459 z m -9.021435,-0.21843 c 0.01693,-0.41097 0.10052,-0.49456 0.213134,-0.21314 0.101907,0.25466 0.08938,0.55894 -0.02783,0.67616 -0.117225,0.11723 -0.200604,-0.0911 -0.185286,-0.46302 z m 0.352778,-1.41111 c 0.01693,-0.41097 0.10052,-0.49456 0.213134,-0.21314 0.101907,0.25466 0.08938,0.55894 -0.02783,0.67616 -0.117225,0.11723 -0.200604,-0.0911 -0.185286,-0.46302 z m 0.374516,-1.20533 c 0,-0.29104 0.136433,-0.84666 0.303187,-1.23472 0.191107,-0.44472 0.303188,-0.50993 0.303188,-0.17639 0,0.29105 -0.136433,0.84667 -0.303188,1.23473 -0.191106,0.44472 -0.303187,0.50993 -0.303187,0.17638 z m 9.502701,-1.24176 c -0.01503,-0.1979 0.992304,-3.3729 2.238474,-7.05555 1.246173,-3.68266 2.278048,-6.53382 2.293055,-6.33592 0.01503,0.1979 -0.992304,3.3729 -2.238474,7.05555 -1.246173,3.68266 -2.278048,6.53382 -2.293055,6.33592 z m -8.793057,-1.22768 c 0,-0.29104 0.21397,-1.08479 0.475488,-1.76389 0.261518,-0.6791 0.475488,-0.9966 0.475488,-0.70555 0,0.29104 -0.21397,1.08479 -0.475488,1.76388 -0.261518,0.6791 -0.475488,0.9966 -0.475488,0.70556 z m 1.384942,-4.41402 c -0.01513,-0.19639 1.626986,-5.27639 3.649148,-11.28889 2.022161,-6.0125 3.689036,-10.77113 3.704166,-10.57474 0.01514,0.19639 -1.626986,5.27639 -3.649147,11.28889 -2.022161,6.0125 -3.689036,10.77113 -3.704167,10.57474 z m 15.195614,-18.16376 c 0,-0.29104 0.21397,-1.08479 0.475488,-1.76389 0.261518,-0.67909 0.475488,-0.99659 0.475488,-0.70555 0,0.29104 -0.21397,1.08479 -0.475488,1.76389 -0.261518,0.67909 -0.475488,0.99659 -0.475488,0.70555 z m 1.054245,-3.52778 c 0,-0.29104 0.136433,-0.84666 0.303187,-1.23472 0.191107,-0.44472 0.303188,-0.50993 0.303188,-0.17639 0,0.29105 -0.136433,0.84667 -0.303188,1.23473 -0.191106,0.44472 -0.303187,0.50993 -0.303187,0.17638 z m -8.819445,-1.05833 c 0,-0.29104 0.136433,-0.84667 0.303188,-1.23472 0.191107,-0.44473 0.303188,-0.50993 0.303188,-0.17639 0,0.29104 -0.136434,0.84667 -0.303188,1.23472 -0.191107,0.44473 -0.303188,0.50994 -0.303188,0.17639 z m 9.503262,-1.6169 c 0.01693,-0.41096 0.100521,-0.49455 0.213134,-0.21313 0.101907,0.25466 0.08938,0.55893 -0.02783,0.67616 -0.117224,0.11722 -0.200603,-0.0911 -0.185286,-0.46303 z m -8.80436,-0.67615 c -0.01475,-0.19403 0.285193,-1.46403 0.666546,-2.82223 0.381352,-1.35819 0.613967,-1.90243 0.516925,-1.20942 -0.192409,1.37402 -1.140079,4.60238 -1.183471,4.03165 z m 9.157138,-0.73496 c 0.01693,-0.41097 0.10052,-0.49456 0.213134,-0.21313 0.101907,0.25466 0.08938,0.55893 -0.02783,0.67615 -0.117225,0.11723 -0.200604,-0.0911 -0.185286,-0.46302 z m 0.376548,-1.02893 c -0.01454,-0.19403 0.284949,-2.01966 0.66548,-4.05695 0.479107,-2.56506 0.634005,-3.05325 0.503699,-1.5875 -0.172857,1.94439 -1.10817,6.45981 -1.169179,5.64445 z m -8.109811,-4.40973 c 0,-0.48506 0.08007,-0.6835 0.177937,-0.44097 0.09786,0.24254 0.09786,0.63941 0,0.88195 -0.09786,0.24253 -0.177937,0.0441 -0.177937,-0.44098 z m 0.365852,-1.94027 c 0.0072,-0.58209 0.08625,-0.7775 0.175697,-0.43426 0.08944,0.34324 0.08356,0.81949 -0.01309,1.05833 -0.09664,0.23884 -0.169817,-0.042 -0.162627,-0.62407 z m 0.393319,-3.52778 c 0.0021,-1.16417 0.06784,-1.59789 0.146353,-0.96382 0.07851,0.63406 0.0769,1.58656 -0.0036,2.11667 -0.0805,0.5301 -0.144735,0.0113 -0.142755,-1.15285 z m 8.82589,-0.70556 c 0.0014,-1.35819 0.06533,-1.87059 0.141696,-1.13866 0.07637,0.73194 0.07509,1.84319 -0.0028,2.46945 -0.07793,0.62626 -0.140416,0.0274 -0.13885,-1.33079 z m 0,-5.29166 c 0.0014,-1.3582 0.06533,-1.87059 0.141696,-1.13866 0.07637,0.73193 0.07509,1.84318 -0.0028,2.46944 -0.07793,0.62627 -0.140416,0.0274 -0.13885,-1.33078 z m -8.829492,-0.52917 c 0,-1.06715 0.06614,-1.50371 0.146963,-0.97014 0.08083,0.53358 0.08083,1.4067 0,1.94028 -0.08083,0.53358 -0.146963,0.097 -0.146963,-0.97014 z m 8.225268,-4.09765 c -0.129237,-1.09961 -0.16467,-2.06959 -0.07874,-2.15552 0.08593,-0.0859 0.267899,0.73752 0.404382,1.82988 0.136483,1.09236 0.171916,2.06234 0.07874,2.15552 -0.09318,0.0932 -0.275145,-0.73027 -0.404385,-1.82988 z m -8.614985,0.74626 c 0.0072,-0.58208 0.08625,-0.7775 0.175697,-0.43426 0.08944,0.34325 0.08356,0.8195 -0.01309,1.05834 -0.09664,0.23884 -0.169817,-0.042 -0.162627,-0.62408 z m -0.720055,-3.05288 c -0.230456,-0.99839 -0.354835,-1.87943 -0.276398,-1.95786 0.07844,-0.0784 0.337143,0.66827 0.574901,1.65935 0.237758,0.99109 0.362137,1.87213 0.276394,1.95787 -0.08574,0.0857 -0.344442,-0.66097 -0.574897,-1.65936 z m 8.608381,-1.55283 c -0.132817,-0.70797 -0.170931,-1.35777 -0.08469,-1.44401 0.08623,-0.0862 0.265458,0.42246 0.398272,1.13043 0.132818,0.70797 0.170932,1.35778 0.08469,1.44401 -0.08623,0.0862 -0.265458,-0.42246 -0.398272,-1.13043 z m -9.995373,-3.23379 c -0.420515,-1.2934 -0.705873,-2.41033 -0.634132,-2.48207 0.07174,-0.0717 0.480571,0.92171 0.908516,2.20768 0.427944,1.28597 0.713302,2.4029 0.634132,2.48207 -0.07917,0.0792 -0.488001,-0.91429 -0.908516,-2.20768 z m 9.295416,0.40597 c -0.129759,-0.517 -0.16789,-1.00803 -0.08473,-1.09119 0.08315,-0.0831 0.257355,0.27181 0.387114,0.78881 0.129759,0.517 0.167891,1.00803 0.08473,1.09119 -0.08315,0.0831 -0.257355,-0.27181 -0.387114,-0.78881 z m -1.871955,-5.71684 c -0.821687,-2.24818 -1.436825,-4.14475 -1.366975,-4.2146 0.06985,-0.0699 0.806619,1.70692 1.637255,3.94839 0.830637,2.24147 1.445776,4.13804 1.366976,4.21461 -0.0788,0.0766 -0.815566,-1.70022 -1.637256,-3.9484 z m -8.873769,1.29312 c -0.217336,-0.62345 -0.333421,-1.19529 -0.257966,-1.27074 0.07546,-0.0755 0.315013,0.37291 0.532349,0.99636 0.217336,0.62345 0.333421,1.19528 0.257965,1.27073 -0.07546,0.0755 -0.315012,-0.3729 -0.532348,-0.99635 z m -0.87756,-2.2675 c -0.340423,-0.88712 -0.239998,-1.11603 0.175871,-0.40087 0.205912,0.3541 0.300072,0.71813 0.209243,0.80896 -0.09083,0.0908 -0.264132,-0.0928 -0.385114,-0.40809 z m -1.389708,-3.57912 c -0.514403,-1.29652 -0.878145,-2.41445 -0.808313,-2.48428 0.06983,-0.0698 0.550545,0.93112 1.068254,2.22434 0.517712,1.29321 0.881451,2.41114 0.808316,2.48428 -0.07314,0.0731 -0.553854,-0.92782 -1.068257,-2.22434 z m 9.15082,-0.65421 c -0.340424,-0.88713 -0.239999,-1.11603 0.17587,-0.40088 0.205913,0.3541 0.300073,0.71814 0.209243,0.80897 -0.09083,0.0908 -0.264132,-0.0928 -0.385113,-0.40809 z m -0.705556,-1.76389 c -0.340423,-0.88713 -0.239998,-1.11603 0.17587,-0.40088 0.205913,0.35411 0.300073,0.71814 0.209243,0.80897 -0.09083,0.0908 -0.264131,-0.0928 -0.385113,-0.40809 z m -9.877778,-1.05833 c -0.340424,-0.88713 -0.239998,-1.11603 0.17587,-0.40088 0.205913,0.3541 0.300073,0.71814 0.209243,0.80897 -0.09083,0.0908 -0.264131,-0.0928 -0.385113,-0.40809 z m 9.172222,-0.70556 c -0.340423,-0.88713 -0.239998,-1.11603 0.175871,-0.40087 0.205913,0.3541 0.300073,0.71813 0.209243,0.80896 -0.09083,0.0908 -0.264132,-0.0928 -0.385114,-0.40809 z m -9.877778,-1.05833 c -0.340423,-0.88713 -0.239998,-1.11603 0.175871,-0.40088 0.205913,0.3541 0.300072,0.71814 0.209243,0.80897 -0.09083,0.0908 -0.264132,-0.0928 -0.385114,-0.40809 z m 7.942577,-3.73919 c -0.800555,-1.98051 -1.398076,-3.65841 -1.327824,-3.72866 0.07025,-0.0702 0.78273,1.49269 1.583285,3.4732 0.800555,1.98051 1.398076,3.65841 1.327823,3.72866 -0.07025,0.0702 -0.782729,-1.49269 -1.583284,-3.4732 z m -9.525554,-0.17583 c -0.608334,-1.49364 -1.048336,-2.77343 -0.97778,-2.84398 0.07055,-0.0706 0.626011,1.09378 1.234348,2.58741 0.608334,1.49363 1.048336,2.77342 0.97778,2.84398 -0.07055,0.0705 -0.626011,-1.09378 -1.234348,-2.58741 z m -2.666803,-6.50542 c -0.711743,-1.77829 -1.235001,-3.29232 -1.16279,-3.36453 0.07221,-0.0722 0.711471,1.32582 1.42059,3.10673 0.709118,1.7809 1.232376,3.29494 1.162794,3.36452 -0.06958,0.0696 -0.70885,-1.32845 -1.420594,-3.10672 z m 10.247003,1.95377 c -0.340424,-0.88713 -0.239998,-1.11603 0.17587,-0.40087 0.205913,0.3541 0.300073,0.71813 0.209243,0.80896 -0.09083,0.0908 -0.264132,-0.0928 -0.385113,-0.40809 z m -2.133523,-5.30475 c -0.905746,-2.26338 -1.588198,-4.17384 -1.516563,-4.24548 0.07164,-0.0716 0.869548,1.72337 1.773128,3.98891 0.903584,2.26554 1.586036,4.17601 1.51656,4.24548 -0.06947,0.0695 -0.867378,-1.72554 -1.773125,-3.98891 z m -10.574782,-3.00717 c -0.515959,-1.39198 -0.877965,-2.59101 -0.80446,-2.66452 0.0735,-0.0735 0.554573,1.00647 1.069043,2.39994 0.51447,1.39347 0.876477,2.5925 0.804461,2.66452 -0.07202,0.072 -0.553085,-1.00796 -1.069044,-2.39994 z m 8.446358,-2.33075 c -0.800136,-2.03613 -3.715805,-10.84519 -3.698703,-11.17483 0.01125,-0.21662 0.952765,2.30264 2.092279,5.59835 1.139515,3.29572 2.023058,6.041 1.963428,6.10063 -0.05963,0.0596 -0.220282,-0.17624 -0.357004,-0.52415 z M 61.671733,142.5171 c -0.5051,-1.51668 -0.906413,-2.91581 -0.891808,-3.10917 0.01461,-0.19337 0.489338,0.98609 1.054954,2.62101 0.565616,1.63493 0.966932,3.03406 0.891808,3.10918 -0.07512,0.0751 -0.54985,-1.10433 -1.054954,-2.62102 z m -1.775111,-5.60261 c -0.129758,-0.517 -0.16789,-1.00804 -0.08473,-1.0912 0.08315,-0.0831 0.257355,0.27182 0.387113,0.78882 0.129759,0.51699 0.167891,1.00803 0.08473,1.09119 -0.08315,0.0831 -0.257355,-0.27182 -0.387113,-0.78881 z m -0.526513,-2.12087 c 0.01693,-0.41097 0.10052,-0.49456 0.213134,-0.21314 0.101907,0.25466 0.08938,0.55894 -0.02783,0.67616 -0.117225,0.11723 -0.200604,-0.0911 -0.185286,-0.46302 z m 8.640403,-1.40691 c -0.129759,-0.517 -0.167891,-1.00804 -0.08473,-1.09119 0.08315,-0.0832 0.257355,0.27181 0.387114,0.78881 0.129758,0.517 0.16789,1.00803 0.08473,1.09119 -0.08315,0.0831 -0.257355,-0.27181 -0.387114,-0.78881 z m -9.373811,-1.20953 c -0.237758,-0.99108 -0.362137,-1.87212 -0.276394,-1.95786 0.08574,-0.0857 0.344442,0.66097 0.574897,1.65936 0.230456,0.99839 0.354835,1.87943 0.276398,1.95786 -0.07844,0.0784 -0.337143,-0.66827 -0.574901,-1.65936 z m 8.643056,-1.41111 c -0.133943,-0.60983 -0.169993,-1.18232 -0.08012,-1.27219 0.08988,-0.0899 0.264837,0.3437 0.3888,0.96351 0.123962,0.61981 0.160016,1.1923 0.08012,1.2722 -0.0799,0.0799 -0.254857,-0.35368 -0.3888,-0.96352 z m -9.292911,-1.76389 c 0,-0.48507 0.08007,-0.6835 0.177937,-0.44097 0.09786,0.24254 0.09786,0.63941 0,0.88195 -0.09786,0.24253 -0.177937,0.0441 -0.177937,-0.44098 z m 8.791596,-0.55856 c 0.01693,-0.41097 0.100521,-0.49456 0.213134,-0.21314 0.101907,0.25466 0.08938,0.55894 -0.02783,0.67616 -0.117224,0.11723 -0.200603,-0.0911 -0.185286,-0.46302 z m -9.144374,-1.20532 c 0,-0.48507 0.08007,-0.68351 0.177938,-0.44098 0.09786,0.24254 0.09786,0.63941 0,0.88195 -0.09786,0.24253 -0.177938,0.0441 -0.177938,-0.44097 z m 8.819445,-0.35278 c 0,-0.48507 0.08007,-0.68351 0.177937,-0.44097 0.09786,0.24253 0.09786,0.63941 0,0.88194 -0.09786,0.24253 -0.177937,0.0441 -0.177937,-0.44097 z m -9.159149,-1.5875 c 0.0072,-0.58209 0.08625,-0.7775 0.175698,-0.43426 0.08944,0.34324 0.08356,0.81949 -0.01309,1.05833 -0.09664,0.23884 -0.169817,-0.042 -0.162628,-0.62407 z m 53.200676,-0.8033 c -4.36382,-2.45015 -6.2605,-3.82006 -8.68449,-6.2725 -1.972366,-1.99552 -4.044844,-5.40403 -3.996277,-6.57249 0.01058,-0.25455 0.33794,0.32309 0.727463,1.28365 1.027074,2.53274 2.852444,4.84801 5.454734,6.91873 2.49983,1.98917 7.81678,5.26886 8.54241,5.26926 0.25099,1.4e-4 -1.17776,-1.63529 -3.175,-3.63429 -3.77578,-3.77911 -5.76325,-6.61308 -6.11292,-8.71654 -0.16453,-0.98968 -0.0784,-0.88524 0.43982,0.53303 0.97854,2.67834 2.6856,4.90282 6.96458,9.07559 2.14314,2.08996 3.6585,3.79975 3.36745,3.79955 -0.29104,-1.9e-4 -1.87854,-0.75799 -3.52777,-1.68399 z m -44.394305,0.62691 c 0,-0.48507 0.08007,-0.68351 0.177938,-0.44097 0.09786,0.24253 0.09786,0.63941 0,0.88194 -0.09786,0.24254 -0.177938,0.0441 -0.177938,-0.44097 z m -9.146078,-2.11667 c 0,-0.6791 0.0726,-0.95691 0.161336,-0.61736 0.08873,0.33955 0.08873,0.89517 0,1.23472 -0.08873,0.33955 -0.161336,0.0617 -0.161336,-0.61736 z m 8.819444,0 c 0,-0.6791 0.0726,-0.95691 0.161336,-0.61736 0.08873,0.33955 0.08873,0.89517 0,1.23472 -0.08873,0.33955 -0.161336,0.0617 -0.161336,-0.61736 z m -9.165103,-2.64583 c 0.0039,-0.77611 0.07616,-1.05207 0.160542,-0.61325 0.08438,0.43882 0.08118,1.07382 -0.0071,1.41111 -0.0883,0.33729 -0.157339,-0.0218 -0.153423,-0.79786 z m 8.812326,0.17639 c 0,-0.6791 0.0726,-0.95691 0.161336,-0.61736 0.08873,0.33955 0.08873,0.89517 0,1.23472 -0.08873,0.33955 -0.161336,0.0617 -0.161336,-0.61736 z m -0.328909,-3.52778 c 0,-1.06715 0.06614,-1.50372 0.146964,-0.97014 0.08083,0.53358 0.08083,1.4067 0,1.94028 -0.08083,0.53358 -0.146964,0.097 -0.146964,-0.97014 z m -8.804223,-1.23472 c 0.0014,-1.55222 0.0633,-2.14334 0.137827,-1.31359 0.07452,0.82974 0.07347,2.09974 -0.0025,2.82222 -0.0758,0.72247 -0.136776,0.0436 -0.135495,-1.50863 z m -18.346445,-0.26459 c -0.151518,-0.24253 -0.307597,-0.65309 -0.346847,-0.91236 -0.03925,-0.25926 -0.48253,-1.0927 -0.985065,-1.85208 -0.502536,-0.75938 -0.837989,-1.38069 -0.745452,-1.38069 0.197634,0 3.016762,4.10274 3.016762,4.39036 0,0.36914 -0.663857,0.19584 -0.939398,-0.24523 z m -4.933562,-4.58611 c -2.128686,-2.18281 -4.550153,-4.97366 -5.381032,-6.20188 -1.586234,-2.34479 -3.035452,-5.290847 -2.745367,-5.580933 0.09389,-0.09389 0.356581,0.3925 0.583763,1.080873 0.79393,2.40563 4.002571,6.73371 7.92238,10.68636 2.173171,2.19139 3.847582,3.98433 3.72091,3.98433 -0.126672,0 -1.971965,-1.78593 -4.100654,-3.96875 z m 31.741499,-0.44097 c 0.0014,-1.35819 0.06533,-1.87059 0.141697,-1.13866 0.07637,0.73193 0.07509,1.84318 -0.0028,2.46944 -0.07793,0.62627 -0.140416,0.0274 -0.13885,-1.33078 z m -8.879505,0.52917 c 0,-0.48507 0.08007,-0.68351 0.177938,-0.44097 0.09786,0.24253 0.09786,0.63941 0,0.88194 -0.09786,0.24253 -0.177938,0.0441 -0.177938,-0.44097 z m 41.627779,-0.70556 c 0,-0.48507 0.08007,-0.6835 0.177938,-0.44097 0.09786,0.24253 0.09786,0.63941 0,0.88194 -0.09786,0.24254 -0.177938,0.0441 -0.177938,-0.44097 z m 5.304742,-0.17639 c 0.007,-0.58208 0.0862,-0.7775 0.1757,-0.43426 0.0894,0.34325 0.0836,0.8195 -0.0131,1.05834 -0.0966,0.23884 -0.16982,-0.042 -0.16263,-0.62408 z m -69.323472,-2.20486 c -1.431607,-2.38095 -2.714431,-4.88282 -2.706077,-5.27761 0.0032,-0.15325 0.687913,0.99136 1.521495,2.54358 0.833579,1.55223 1.801686,3.25879 2.151345,3.79237 0.349659,0.53357 0.549607,0.97013 0.444324,0.97013 -0.10528,0 -0.740269,-0.91281 -1.411087,-2.02847 z m 22.811293,-1.4993 c 0,-1.64924 0.06077,-2.32393 0.135043,-1.49931 0.07427,0.82462 0.07427,2.17399 0,2.99861 -0.07427,0.82462 -0.135043,0.14993 -0.135043,-1.4993 z m 40.895042,1.41111 c 0,-0.87313 0.0688,-1.23031 0.152883,-0.79375 0.08409,0.43656 0.08409,1.15094 0,1.5875 -0.08408,0.43656 -0.152883,0.0794 -0.152883,-0.79375 z m 5.957817,-0.52917 c -10e-4,-0.58208 0.20683,-1.69333 0.46261,-2.46944 0.60697,-1.84169 0.61413,-1.23983 0.0168,1.41111 -0.29769,1.32115 -0.47787,1.7189 -0.4794,1.05833 z m -38.047363,-2.11667 c 0.0021,-1.16416 0.06784,-1.59788 0.146353,-0.96382 0.07851,0.63407 0.0769,1.58657 -0.0036,2.11667 -0.0805,0.5301 -0.144734,0.0113 -0.142755,-1.15285 z m 32.116727,-2.29305 c 0,-1.64924 0.06077,-2.32392 0.135044,-1.49931 0.07427,0.82462 0.07427,2.174 0,2.99861 -0.07427,0.82462 -0.135044,0.14994 -0.135044,-1.4993 z m 20.249656,1.50558 c 0.82462,-0.0743 2.17399,-0.0743 2.99861,0 0.82462,0.0743 0.14993,0.13504 -1.49931,0.13504 -1.64923,0 -2.32392,-0.0608 -1.4993,-0.13504 z m -4.67431,-0.61376 c -1.87062,-0.61651 -1.19074,-0.63023 1.23472,-0.0249 1.06716,0.26632 1.54341,0.48552 1.05834,0.48711 -0.48507,0.002 -1.51695,-0.20639 -2.29306,-0.46218 z m 9.6132,0.28565 c 0.24253,-0.0979 0.63941,-0.0979 0.88194,0 0.24254,0.0979 0.0441,0.17794 -0.44097,0.17794 -0.48507,0 -0.68351,-0.0801 -0.44097,-0.17794 z m 3.43958,-0.93918 c 3.17175,-1.26522 3.72836,-1.40498 1.76389,-0.4429 -0.97014,0.47512 -2.24014,0.95912 -2.82222,1.07555 -0.58209,0.11643 -0.10584,-0.16826 1.05833,-0.63265 z m -69.231872,-1.47301 c 0.0039,-0.77611 0.07616,-1.05207 0.160542,-0.61325 0.08438,0.43882 0.08118,1.07382 -0.0071,1.41111 -0.0883,0.33729 -0.157339,-0.0218 -0.153423,-0.79786 z m 51.592982,0.54847 c -0.77611,-0.36726 -1.25236,-0.66883 -1.05833,-0.67014 0.48114,-0.003 3.26499,1.29975 2.82222,1.32097 -0.19403,0.009 -0.98778,-0.28357 -1.76389,-0.65083 z m -42.780656,-0.72486 c 0,-0.6791 0.0726,-0.95691 0.161336,-0.61736 0.08873,0.33955 0.08873,0.89517 0,1.23472 -0.08873,0.33955 -0.161336,0.0617 -0.161336,-0.61736 z m 39.087216,0.48416 c -0.0208,-0.77338 0.95877,-1.27789 1.6465,-0.84796 0.56976,0.35618 0.55607,0.3758 -0.13174,0.18879 -0.52287,-0.14216 -0.88495,-0.007 -1.1358,0.42413 -0.20253,0.34805 -0.37306,0.45382 -0.37896,0.23504 z m 25.74205,-0.64744 c 0,-0.0963 0.67469,-0.51764 1.49931,-0.93622 2.2029,-1.118218 7.02399,-4.253132 6.83358,-4.443541 -0.0902,-0.09022 -2.0267,0.490065 -4.30329,1.289516 -2.27659,0.799451 -4.2651,1.408853 -4.41891,1.354229 -0.15381,-0.05462 2.09336,-0.920577 4.99372,-1.924342 2.90035,-1.003763 5.27337,-1.675526 5.27337,-1.492808 0,0.182721 -1.46844,1.29793 -3.26319,2.478243 -3.25446,2.140278 -6.61459,4.007093 -6.61459,3.674923 z M 29.579079,98.984225 c -0.122615,-0.613075 -0.20138,-1.848898 -0.175034,-2.746276 0.03777,-1.286616 0.106317,-1.072336 0.324174,1.013442 0.292009,2.795669 0.223238,3.594709 -0.14914,1.732834 z m 27.375578,0.03185 c 0,-0.679097 0.0726,-0.956909 0.161336,-0.617361 0.08873,0.339549 0.08873,0.895174 0,1.234723 -0.08873,0.339548 -0.161336,0.06174 -0.161336,-0.617362 z m 8.806374,0.176389 c 0.0072,-0.582083 0.08625,-0.777501 0.175698,-0.434258 0.08944,0.343242 0.08356,0.819492 -0.01309,1.058333 -0.09664,0.238841 -0.169816,-0.04199 -0.162627,-0.624075 z m 52.208489,-0.0646 c -0.83675,-0.295934 -1.45408,-0.605345 -1.37185,-0.687578 0.0822,-0.08223 0.60809,0.02889 1.16858,0.246959 0.56048,0.218055 1.73344,0.521324 2.60656,0.673932 1.45669,0.2546 1.48576,0.278589 0.35278,0.291106 -0.6791,0.0075 -1.91933,-0.228484 -2.75607,-0.524419 z m 6.19977,0.344258 c 0.43882,-0.08438 1.07382,-0.08118 1.41111,0.0071 0.33729,0.0883 -0.0218,0.157338 -0.79786,0.153423 -0.77611,-0.0039 -1.05207,-0.07616 -0.61325,-0.160543 z M 97.511032,98.486907 c 0.0072,-0.582084 0.08625,-0.777501 0.175698,-0.434259 0.08944,0.343242 0.08356,0.819492 -0.01309,1.058333 -0.09664,0.238841 -0.169817,-0.04199 -0.162628,-0.624074 z m 29.123588,0.648307 c 0.24253,-0.09786 0.63941,-0.09786 0.88194,0 0.24254,0.09786 0.0441,0.177937 -0.44097,0.177937 -0.48507,0 -0.6835,-0.08007 -0.44097,-0.177937 z m 1.78594,-0.360127 c 0.25466,-0.101906 0.55893,-0.08938 0.67616,0.02783 0.11722,0.117224 -0.0911,0.200603 -0.46302,0.185286 -0.41097,-0.01693 -0.49456,-0.100521 -0.21314,-0.213135 z M 24.445107,98.104732 c 0.01693,-0.410968 0.100521,-0.494559 0.213135,-0.213138 0.101907,0.25466 0.08938,0.558934 -0.02783,0.676159 -0.117225,0.117224 -0.200604,-0.09114 -0.185286,-0.463021 z m -22.2528521,0.01084 c 0,-0.63785 1.1539186,-5.118734 1.2845381,-4.988111 0.08709,0.08709 -0.02794,0.898108 -0.2556017,1.802267 -0.2276722,0.904159 -0.33782,1.720049 -0.2447784,1.813091 0.093042,0.09304 0.6936811,-0.825853 1.334756,-2.041984 1.8114998,-3.436461 4.5293599,-7.212044 6.4065051,-8.899761 1.660881,-1.493273 4.251416,-2.683969 5.736731,-2.636788 0.401997,0.01277 -0.1293,0.25449 -1.180666,0.537161 -1.051366,0.28267 -2.425087,0.831313 -3.052717,1.21921 -2.2406541,1.384801 -5.0637442,5.110515 -7.9403296,10.479091 -1.3366398,2.494573 -2.0884375,3.472219 -2.0884375,2.715824 z M 114.88399,97.761889 c -0.64569,-0.517303 -0.63443,-0.524648 0.19716,-0.128602 1.07986,0.514283 1.28,0.677231 0.83178,0.677231 -0.18929,0 -0.65231,-0.246881 -1.02894,-0.548629 z M 66.113809,97.075796 c 0.0072,-0.582084 0.08625,-0.777501 0.175697,-0.434259 0.08944,0.343242 0.08356,0.819492 -0.01309,1.058333 -0.09664,0.238841 -0.169816,-0.04199 -0.162627,-0.624074 z m -8.819445,-0.352778 c 0.0072,-0.582083 0.08625,-0.777501 0.175698,-0.434259 0.08944,0.343242 0.08356,0.819492 -0.01309,1.058333 -0.09664,0.238842 -0.169817,-0.04199 -0.162628,-0.624074 z M 24.120178,96.546629 c 0,-0.485069 0.08007,-0.683507 0.177938,-0.440972 0.09786,0.242535 0.09786,0.63941 0,0.881944 -0.09786,0.242535 -0.177938,0.0441 -0.177938,-0.440972 z M 97.681314,96.242605 C 97.359782,94.634944 92.590456,88.588664 88.693182,84.847968 84.979868,81.28384 79.765865,77.572395 75.922813,75.757731 c -2.80622,-1.325079 -3.445722,-1.356706 -3.739812,-0.184951 -0.124015,0.494104 -0.293514,0.830337 -0.376667,0.747184 -0.08316,-0.08316 -0.04688,-0.566798 0.08061,-1.074763 0.308385,-1.2287 1.167458,-1.194696 4.03587,0.159752 3.960199,1.86998 9.202949,5.622382 13.004165,9.307499 5.174795,5.016732 9.983823,11.541562 9.133361,12.392021 -0.09471,0.09472 -0.265275,-0.293123 -0.379026,-0.861868 z M 111.70005,95.80654 c -4.03411,-2.794448 -5.88134,-5.160207 -5.75761,-7.3738 0.0163,-0.291041 0.24187,0.243749 0.50133,1.188424 0.55254,2.011701 1.61436,3.224893 4.75682,5.434975 2.52821,1.778075 3.05635,2.196046 2.77487,2.196046 -0.10365,0 -1.12759,-0.65054 -2.27541,-1.445645 z M 66.468142,95.311907 c 0,-0.388056 0.127103,-1.102431 0.282448,-1.5875 0.223651,-0.698352 0.282448,-0.735073 0.282448,-0.176389 0,0.388056 -0.127102,1.102431 -0.282448,1.5875 -0.22365,0.698352 -0.282448,0.735072 -0.282448,0.176389 z M 57.634068,94.78274 c 0,-0.485069 0.08007,-0.683507 0.177938,-0.440972 0.09786,0.242535 0.09786,0.63941 0,0.881944 -0.09786,0.242535 -0.177938,0.0441 -0.177938,-0.440972 z m -33.791854,-3.175 c 0,-2.037291 0.05831,-2.870729 0.129568,-1.852083 0.07126,1.018646 0.07126,2.685521 0,3.704167 -0.07126,1.018645 -0.129568,0.185208 -0.129568,-1.852084 z m 5.935483,1.940278 c 0.0072,-0.582083 0.08625,-0.777501 0.175697,-0.434259 0.08944,0.343242 0.08356,0.819492 -0.01309,1.058333 -0.09664,0.238842 -0.169817,-0.04199 -0.162627,-0.624074 z m 28.209149,-0.529167 c 0,-0.485069 0.08007,-0.683507 0.177937,-0.440972 0.09786,0.242535 0.09786,0.63941 0,0.881945 -0.09786,0.242534 -0.177937,0.0441 -0.177937,-0.440973 z M 3.6205182,92.409544 c -0.056783,-1.433213 2.6760982,-7.282123 4.6175261,-9.88242 1.2306124,-1.648252 4.5520967,-4.324939 5.3667837,-4.324939 0.170222,0 -0.653489,0.643054 -1.830465,1.429011 -3.1116624,2.077886 -5.0584737,4.954541 -7.1502908,10.565433 -0.5425193,1.455208 -0.9941208,2.451019 -1.003554,2.212915 z M 67.13122,92.10751 c 0.01693,-0.410969 0.100521,-0.494559 0.213134,-0.213138 0.101907,0.25466 0.08938,0.558934 -0.02783,0.676159 -0.117224,0.117224 -0.200603,-0.09114 -0.185286,-0.463021 z M 30.089552,91.754732 c 0.01693,-0.410968 0.100521,-0.494559 0.213134,-0.213138 0.101907,0.25466 0.08938,0.558934 -0.02783,0.676159 -0.117224,0.117224 -0.200603,-0.09114 -0.185286,-0.463021 z m 28.222223,-0.352778 c 0.01693,-0.410968 0.100521,-0.494559 0.213135,-0.213137 0.101906,0.254659 0.08938,0.558934 -0.02783,0.676158 -0.117224,0.117225 -0.200603,-0.09114 -0.185286,-0.463021 z m 9.364787,-1.205325 c 0.12314,-0.679097 0.362832,-1.552222 0.532645,-1.940278 0.211952,-0.484356 0.238559,-0.318456 0.08486,0.529167 -0.123141,0.679097 -0.362832,1.552222 -0.532645,1.940278 -0.211953,0.484357 -0.238559,0.318456 -0.08486,-0.529167 z m -9.012009,-0.205786 c 0.01693,-0.410968 0.100521,-0.494559 0.213134,-0.213137 0.101907,0.254659 0.08938,0.558934 -0.02783,0.676158 -0.117224,0.117225 -0.200603,-0.09114 -0.185286,-0.463021 z m 0.352778,-1.411111 c 0.01693,-0.410968 0.10052,-0.494559 0.213134,-0.213138 0.101907,0.25466 0.08938,0.558934 -0.02783,0.676159 -0.117225,0.117225 -0.200604,-0.09114 -0.185286,-0.463021 z m -27.886492,0.0294 c 0,-0.194028 0.153885,-0.590903 0.341972,-0.881944 0.188087,-0.291042 0.341973,-0.370417 0.341973,-0.176389 0,0.194028 -0.153886,0.590903 -0.341973,0.881944 -0.188087,0.291042 -0.341972,0.370417 -0.341972,0.176389 z M 24.287162,85.82712 c 0.141171,-1.520003 0.06627,-2.156686 -0.279499,-2.375849 -0.363139,-0.23017 -0.329611,-0.300641 0.145009,-0.304796 0.701407,-0.0061 0.781318,1.025549 0.259169,3.345987 -0.271004,1.204352 -0.289271,1.106865 -0.124679,-0.665342 z m 35.104685,1.547287 c 0,-0.291042 0.136433,-0.846667 0.303188,-1.234722 0.191106,-0.444726 0.303187,-0.509934 0.303187,-0.176389 0,0.291041 -0.136433,0.846666 -0.303187,1.234722 -0.191107,0.444726 -0.303188,0.509933 -0.303188,0.176389 z m 45.811523,-2.469445 c -0.24379,-1.567137 -0.37085,-2.92174 -0.28236,-3.010228 0.0885,-0.08849 0.35759,1.124077 0.598,2.694584 0.24042,1.57051 0.36749,2.925113 0.28237,3.010228 -0.0851,0.08512 -0.35422,-1.127446 -0.59801,-2.694584 z m -36.635212,2.116667 c 0,-0.291042 0.21397,-1.084792 0.475488,-1.763889 0.261518,-0.679097 0.475488,-0.996597 0.475488,-0.705555 0,0.291041 -0.21397,1.084791 -0.475488,1.763889 -0.261518,0.679097 -0.475488,0.996597 -0.475488,0.705555 z m -36.73926,-0.195516 c -0.01683,-1.889136 6.114772,-7.386737 11.359745,-10.185189 3.333986,-1.778843 2.9164,-1.33024 -0.7331,0.787556 -4.341672,2.519461 -8.401788,5.896437 -9.599236,7.984098 -0.563252,0.981992 -1.025585,1.618082 -1.027409,1.413535 z m 28.268504,-1.921151 c 0,-0.291041 0.136434,-0.846666 0.303188,-1.234722 0.191107,-0.444725 0.303188,-0.509933 0.303188,-0.176389 0,0.291042 -0.136433,0.846667 -0.303188,1.234723 -0.191107,0.444725 -0.303188,0.509933 -0.303188,0.176388 z m 9.525001,-1.411111 c 0,-0.291041 0.136433,-0.846666 0.303188,-1.234722 0.191106,-0.444726 0.303187,-0.509933 0.303187,-0.176389 0,0.291042 -0.136433,0.846667 -0.303187,1.234723 -0.191107,0.444725 -0.303188,0.509933 -0.303188,0.176388 z M 18.871649,82.881334 c 0.927488,-0.07291 2.356238,-0.07203 3.175,0.0021 0.818765,0.07398 0.05991,0.133639 -1.686338,0.132563 -1.74625,-0.0011 -2.416147,-0.06161 -1.488662,-0.134518 z m 41.91137,-0.269427 c -0.01104,-0.194028 0.291306,-1.305278 0.671869,-2.469444 0.380566,-1.164167 0.596452,-1.566729 0.479749,-0.894585 -0.232438,1.338725 -1.119441,3.929775 -1.151618,3.364029 z m 9.544939,-1.5875 c 0,-0.291042 0.136434,-0.846667 0.303188,-1.234722 0.191107,-0.444726 0.303188,-0.509933 0.303188,-0.176389 0,0.291042 -0.136433,0.846667 -0.303188,1.234722 -0.191107,0.444726 -0.303188,0.509933 -0.303188,0.176389 z M 104.5939,79.966074 c 0,-0.873125 0.0688,-1.230313 0.15288,-0.79375 0.0841,0.436562 0.0841,1.150937 0,1.5875 -0.0841,0.436562 -0.15288,0.07937 -0.15288,-0.79375 z M 71.033514,78.554963 c 0,-0.291042 0.136433,-0.846667 0.303188,-1.234723 0.191106,-0.444725 0.303187,-0.509933 0.303187,-0.176389 0,0.291042 -0.136433,0.846667 -0.303187,1.234723 -0.191107,0.444725 -0.303188,0.509933 -0.303188,0.176389 z m 21.536749,-2.107576 c -3.034782,-2.83053 -8.245916,-6.267923 -13.119672,-8.654059 -2.23132,-1.092425 -3.66007,-1.875049 -3.175,-1.739162 3.425987,0.959763 12.046409,6.228108 16.366635,10.002424 1.337553,1.168534 2.567866,2.04059 2.734028,1.937893 0.166165,-0.102693 0.302115,-0.01859 0.302115,0.186881 0,0.800386 -0.972654,0.257753 -3.108106,-1.733977 z m -78.030785,1.433699 c 0.660812,-0.484095 4.810463,-1.802172 5.593411,-1.776666 0.319109,0.01041 -0.610425,0.38391 -2.065634,0.83003 -1.455208,0.446119 -2.963333,0.928839 -3.351389,1.072709 -0.569221,0.211035 -0.603302,0.186676 -0.176388,-0.126073 z m 47.674591,-0.384457 c 0,-0.291041 0.136433,-0.846666 0.303188,-1.234722 0.191107,-0.444726 0.303188,-0.509933 0.303188,-0.176389 0,0.291042 -0.136434,0.846667 -0.303188,1.234722 -0.191107,0.444726 -0.303188,0.509934 -0.303188,0.176389 z m 42.075321,-5.468055 c -3.6e-4,-3.298472 0.0526,-4.695331 0.11783,-3.104127 0.0652,1.5912 0.0655,4.28995 7e-4,5.997222 -0.0648,1.707268 -0.11816,0.405377 -0.11857,-2.893095 z m -8.821809,-0.176389 c 0,-3.007431 0.05411,-4.237743 0.120234,-2.734028 0.06613,1.503715 0.06613,3.96434 0,5.468056 -0.06613,1.503715 -0.120234,0.273402 -0.120234,-2.734028 z m -74.130418,3.988862 c 0.343243,-0.08944 0.819493,-0.08356 1.058334,0.01309 0.238841,0.09664 -0.04199,0.169816 -0.624075,0.162627 -0.582083,-0.0072 -0.777501,-0.08625 -0.434259,-0.175698 z m 2.467582,-0.361453 c 0.536244,-0.08109 1.329994,-0.07892 1.763889,0.0048 0.433896,0.08374 -0.0049,0.150079 -0.974989,0.147433 -0.970139,-0.0028 -1.325143,-0.07116 -0.7889,-0.152249 z m 4.066597,-0.675329 c 0.444535,-0.362462 1.748631,-2.48465 2.897988,-4.715969 1.149357,-2.231319 2.092248,-3.898194 2.09531,-3.704167 0.0032,0.194028 -0.993183,2.257464 -2.213878,4.585409 -1.503635,2.867526 -2.44009,4.274743 -2.903563,4.363195 -0.608083,0.116049 -0.594286,0.05732 0.124143,-0.528468 z m 19.123692,-0.100644 c 0.679097,-0.354838 1.631597,-0.747194 2.116667,-0.871908 0.485069,-0.124711 0.02815,0.172624 -1.015379,0.660749 -2.187716,1.023334 -2.926895,1.165063 -1.101288,0.211159 z m 15.924591,0.323564 c 0,-0.291042 0.136433,-0.846667 0.303188,-1.234722 0.191106,-0.444726 0.303187,-0.509934 0.303187,-0.176389 0,0.291041 -0.136433,0.846666 -0.303187,1.234722 -0.191107,0.444726 -0.303188,0.509933 -0.303188,0.176389 z M 52.46309,72.724251 c 0.776111,-0.255785 1.728611,-0.46307 2.116667,-0.460632 0.388055,0.0025 -0.08819,0.225301 -1.058334,0.495251 -2.207133,0.614154 -2.952838,0.589759 -1.058333,-0.03461 z M 63.297097,72.34577 c -0.250183,-0.271473 -0.29924,-0.493585 -0.109012,-0.493585 0.366339,0 0.896662,0.671057 0.687416,0.869833 -0.06794,0.06454 -0.328218,-0.104775 -0.578404,-0.376248 z m -7.394424,-0.383988 c 0.339549,-0.08873 0.895174,-0.08873 1.234723,0 0.339548,0.08873 0.06174,0.161336 -0.617361,0.161336 -0.679098,0 -0.95691,-0.0726 -0.617362,-0.161336 z m 3.351389,-0.364797 c 0.630591,-0.07825 1.662466,-0.07825 2.293056,0 0.63059,0.07826 0.114653,0.142286 -1.146528,0.142286 -1.26118,0 -1.777118,-0.06403 -1.146528,-0.142286 z M 42.056145,66.799751 c 0,-0.657687 1.1081,-3.834839 1.278167,-3.664772 0.07726,0.07726 -0.09934,0.820201 -0.392455,1.650975 -0.705534,1.999693 -0.676716,2.215332 0.260816,1.951616 0.621365,-0.17478 0.678826,-0.142808 0.264583,0.147214 -0.733107,0.513271 -1.411111,0.472416 -1.411111,-0.08503 z M 44.52559,66.20774 c 0.291041,-0.188087 0.687916,-0.341972 0.881944,-0.341972 0.194028,0 0.114653,0.153885 -0.176389,0.341972 -0.291041,0.188087 -0.687916,0.341973 -0.881944,0.341973 -0.194028,0 -0.114653,-0.153886 0.176389,-0.341973 z M 32.92421,65.678574 c 0.0066,-0.194028 0.317412,-0.987778 0.690644,-1.763889 0.373231,-0.776111 0.579797,-1.014236 0.459034,-0.529167 -0.248684,0.998887 -1.168093,2.832668 -1.149678,2.293056 z m 13.933393,-0.337337 c 0.603511,-0.278546 1.556011,-0.596805 2.116666,-0.707235 0.872321,-0.171817 0.841255,-0.130947 -0.215346,0.283306 -0.679097,0.266248 -1.631597,0.584503 -2.116667,0.707234 -0.663398,0.167852 -0.610034,0.09765 0.215347,-0.283305 z m 26.066599,-0.22182 c -0.970139,-0.37447 -1.305172,-0.591707 -0.744513,-0.482744 1.109405,0.215611 3.434027,1.159838 2.861179,1.16217 -0.194027,7.05e-4 -1.146527,-0.304952 -2.116666,-0.679426 z m 22.85025,-0.675565 c 0,-0.873125 0.0688,-1.230313 0.152883,-0.79375 0.08409,0.436562 0.08409,1.150937 0,1.5875 -0.08409,0.436562 -0.152883,0.07937 -0.152883,-0.79375 z m 8.805208,0 c 0,-0.679098 0.0726,-0.95691 0.16133,-0.617362 0.0887,0.339549 0.0887,0.895174 0,1.234723 -0.0887,0.339548 -0.16133,0.06174 -0.16133,-0.617361 z M 50.456666,64.202866 c 0.25466,-0.101907 0.558934,-0.08938 0.676159,0.02783 0.117224,0.117224 -0.09114,0.200603 -0.463021,0.185286 -0.410968,-0.01693 -0.494559,-0.100521 -0.213138,-0.213135 z m 19.755556,0 c 0.25466,-0.101907 0.558935,-0.08938 0.676159,0.02783 0.117225,0.117224 -0.09114,0.200603 -0.463021,0.185286 -0.410968,-0.01693 -0.494559,-0.100521 -0.213138,-0.213135 z m -18.366493,-0.34543 c 0.242535,-0.09786 0.63941,-0.09786 0.881944,0 0.242535,0.09786 0.0441,0.177938 -0.440972,0.177938 -0.485069,0 -0.683507,-0.08007 -0.440972,-0.177938 z m 16.139584,0.03362 C 67.791285,63.811688 66.521285,63.592997 65.16309,63.40508 l -2.469444,-0.341669 2.469444,0.161452 c 2.336455,0.152757 5.45688,0.802506 3.880556,0.808027 -0.388056,0.0014 -0.864306,-0.06247 -1.058333,-0.141834 z M 53.79272,63.493814 c 0.343242,-0.08944 0.819492,-0.08356 1.058333,0.01309 0.238842,0.09664 -0.04199,0.169817 -0.624074,0.162627 -0.582083,-0.0072 -0.777501,-0.08625 -0.434259,-0.175697 z m 2.286342,-0.357272 c 0.436563,-0.08409 1.150938,-0.08409 1.5875,0 0.436563,0.08408 0.07937,0.152883 -0.79375,0.152883 -0.873125,0 -1.230312,-0.0688 -0.79375,-0.152883 z m 4.056945,-0.346992 c 0.339548,-0.08873 0.895174,-0.08873 1.234722,0 0.339549,0.08873 0.06174,0.161335 -0.617361,0.161335 -0.679097,0 -0.95691,-0.0726 -0.617361,-0.161335 z m 44.783363,-0.638754 c 0.007,-0.582083 0.0862,-0.777501 0.17569,-0.434259 0.0894,0.343242 0.0836,0.819492 -0.0131,1.058333 -0.0966,0.238842 -0.16982,-0.04199 -0.16263,-0.624074 z m -61.398435,0.176389 c 0,-0.291042 0.21397,-1.084792 0.475488,-1.763889 0.261518,-0.679097 0.475488,-0.996597 0.475488,-0.705556 0,0.291042 -0.21397,1.084792 -0.475488,1.763889 -0.261518,0.679098 -0.475488,0.996598 -0.475488,0.705556 z m 52.578986,-0.529167 c 0.0072,-0.582083 0.08625,-0.777501 0.175697,-0.434259 0.08944,0.343243 0.08356,0.819493 -0.01309,1.058334 -0.09664,0.238841 -0.169816,-0.04199 -0.162627,-0.624075 z M 34.499264,61.533435 c 0.67715,-2.134792 1.510891,-4.281297 1.533881,-3.949054 0.03524,0.509333 -1.408888,4.742804 -1.617881,4.742804 -0.09228,0 -0.05448,-0.357188 0.084,-0.79375 z M 105.23122,60.35751 c 0.0169,-0.410968 0.10052,-0.494559 0.21314,-0.213138 0.1019,0.25466 0.0894,0.558934 -0.0278,0.676159 -0.11722,0.117225 -0.2006,-0.09114 -0.18528,-0.463021 z m -8.791595,-0.49977 c 0,-0.485069 0.08007,-0.683506 0.177937,-0.440972 0.09786,0.242535 0.09786,0.63941 0,0.881945 -0.09786,0.242534 -0.177937,0.0441 -0.177937,-0.440973 z M 105.584,58.946399 c 0.0169,-0.410968 0.10052,-0.494559 0.21313,-0.213138 0.10191,0.25466 0.0894,0.558934 -0.0278,0.676159 -0.11723,0.117224 -0.2006,-0.09114 -0.18529,-0.463021 z m -61.042384,-0.0588 c 0.04203,-0.693964 1.6848,-6.905731 1.714194,-6.481865 0.04382,0.631878 -1.39112,6.746448 -1.583225,6.746448 -0.08085,0 -0.139785,-0.119063 -0.130969,-0.264583 z M 96.796664,58.27024 c -0.0057,-0.388055 0.126062,-1.023055 0.292816,-1.411111 0.386296,-0.898955 0.386296,0.0285 0,1.234723 -0.227058,0.708988 -0.28448,0.743581 -0.292816,0.176388 z M 36.086775,56.476955 c 0.01693,-0.410969 0.10052,-0.49456 0.213134,-0.213138 0.101907,0.25466 0.08938,0.558934 -0.02783,0.676158 -0.117225,0.117225 -0.200604,-0.09114 -0.185286,-0.46302 z m 70.199845,0.477509 c -0.0404,-0.417639 1.10883,-3.136124 1.26134,-2.983614 0.0768,0.07678 -0.17,0.837427 -0.54841,1.690327 -0.37841,0.852904 -0.69922,1.434881 -0.71293,1.293287 z m -8.82721,-1.233808 c -0.0094,-0.238108 0.358454,-1.430811 0.817524,-2.650452 3.308646,-8.790273 9.848536,-16.584044 19.979216,-23.809825 2.03729,-1.453113 3.68082,-2.870317 3.65228,-3.149346 -0.0555,-0.543324 0.65251,-0.474208 0.80398,0.07848 0.0498,0.181899 -1.75963,1.600729 -4.02108,3.152951 -5.07771,3.485261 -11.85616,9.948884 -14.87599,14.185071 -2.50939,3.520143 -3.925954,6.162117 -5.351152,9.980207 -0.543193,1.455208 -0.995345,2.451018 -1.004778,2.212914 z M 36.471662,55.271629 c 0.0057,-0.291041 0.137471,-0.926041 0.292816,-1.411111 0.227059,-0.708988 0.28448,-0.743581 0.292816,-0.176389 0.0057,0.388056 -0.126061,1.023056 -0.292816,1.411112 -0.185748,0.432262 -0.299169,0.500584 -0.292816,0.176388 z m 0.722496,-2.998611 c 0.0036,-0.388055 0.127762,-1.181805 0.275876,-1.763889 0.241896,-0.950637 0.26997,-0.968586 0.275876,-0.176388 0.0036,0.485069 -0.12053,1.278819 -0.275876,1.763888 -0.221326,0.691089 -0.281026,0.729263 -0.275876,0.176389 z m 71.400052,-0.529166 c 1.98449,-4.234554 9.33818,-11.687987 15.87993,-16.095321 3.90611,-2.631648 11.27652,-6.835235 11.98463,-6.835235 0.17224,0 -1.68865,1.090994 -4.1353,2.42443 -5.01011,2.730528 -7.67872,4.462502 -11.77427,7.641682 -3.53222,2.741902 -8.39222,7.779177 -10.23703,10.610434 -2.24603,3.447023 -2.3266,3.552726 -1.71796,2.25401 z M 46.358253,50.861907 c 0.0072,-0.582083 0.08625,-0.777501 0.175697,-0.434259 0.08944,0.343243 0.08356,0.819493 -0.01309,1.058334 -0.09664,0.238841 -0.169817,-0.04199 -0.162627,-0.624075 z m -8.468724,-2.293055 c -0.0079,-0.48507 0.112695,-1.59632 0.268055,-2.469445 0.211822,-1.190445 0.288431,-1.322796 0.306295,-0.529166 0.01309,0.582083 -0.107519,1.693333 -0.268051,2.469444 -0.1827,0.883285 -0.297271,1.081222 -0.306299,0.529167 z m 8.834572,-0.352778 c 0,-0.679097 0.0726,-0.95691 0.161336,-0.617361 0.08873,0.339548 0.08873,0.895173 0,1.234722 -0.08873,0.339549 -0.161336,0.06174 -0.161336,-0.617361 z m 0.367016,-2.822222 c 0,-0.873125 0.0688,-1.230313 0.152883,-0.79375 0.08409,0.436562 0.08409,1.150937 0,1.5875 -0.08409,0.436562 -0.152883,0.07937 -0.152883,-0.79375 z m 26.626835,0.824695 c 0.242534,-0.09786 0.63941,-0.09786 0.881944,0 0.242535,0.09786 0.0441,0.177938 -0.440972,0.177938 -0.485069,0 -0.683507,-0.08007 -0.440972,-0.177938 z M 71.601285,45.86577 c 0.242535,-0.09786 0.63941,-0.09786 0.881945,0 0.242534,0.09786 0.0441,0.177937 -0.440973,0.177937 -0.485069,0 -0.683507,-0.08007 -0.440972,-0.177937 z m 4.233333,0 c 0.242535,-0.09786 0.63941,-0.09786 0.881945,0 0.242535,0.09786 0.0441,0.177937 -0.440972,0.177937 -0.48507,0 -0.683507,-0.08007 -0.440973,-0.177937 z M 68.969453,45.010859 C 65.697969,43.391492 63.536725,39.79874 63.367331,35.698146 l -0.102245,-2.475128 0.290752,2.502521 c 0.159914,1.376388 0.610645,3.225691 1.001625,4.109569 0.887042,2.005301 3.191898,4.344991 5.12869,5.206192 0.810786,0.360521 1.31541,0.66658 1.121382,0.680131 -0.194028,0.01355 -1.021165,-0.306205 -1.838082,-0.710572 z m 9.599193,-0.02368 c 2.879898,-1.486296 5.07908,-4.24422 5.789772,-7.26077 0.234403,-0.994932 0.320996,-1.107003 0.344957,-0.446451 0.04777,1.317053 -1.47228,4.309865 -2.928705,5.766294 -1.179414,1.17941 -3.672272,2.722061 -4.338497,2.68478 -0.15325,-0.0086 0.356362,-0.34331 1.132473,-0.743853 z m -39.900088,-6.29611 c 0,-2.813403 0.05479,-3.96434 0.12175,-2.557639 0.06696,1.406701 0.06696,3.708576 0,5.115278 -0.06696,1.406701 -0.12175,0.255764 -0.12175,-2.557639 z M 47.48488,38.51468 c 7.06e-4,-2.522361 0.05681,-3.507948 0.12487,-2.190189 0.06806,1.317756 0.06755,3.381506 -0.0011,4.586111 -0.06868,1.204602 -0.124365,0.126439 -0.123747,-2.395922 z m 37.326152,-3.175 c 0.0072,-0.582083 0.08625,-0.777501 0.175697,-0.434259 0.08944,0.343242 0.08356,0.819492 -0.01309,1.058334 -0.09664,0.238841 -0.169817,-0.04199 -0.162627,-0.624075 z m -0.373511,-1.972126 c -0.02642,-0.502585 -0.533767,-1.885813 -1.127428,-3.073838 -1.207386,-2.416189 -2.98565,-4.028973 -5.545988,-5.029891 -0.915695,-0.357974 -1.461368,-0.658291 -1.2126,-0.667368 0.865308,-0.03157 3.030527,1.06455 4.530016,2.293268 1.736249,1.422724 3.811517,5.244454 3.561948,6.559542 -0.152565,0.803942 -0.159529,0.80118 -0.205948,-0.08171 z M 37.926394,31.107992 c -0.230734,-1.347022 -0.362302,-2.506348 -0.292368,-2.576279 0.209585,-0.209586 0.95468,3.764682 0.828569,4.419522 -0.06418,0.333237 -0.305466,-0.496221 -0.536201,-1.843243 z m 9.157604,1.056693 c 0.0039,-0.776111 0.07616,-1.052071 0.160542,-0.613248 0.08438,0.438824 0.08118,1.073824 -0.0071,1.411112 -0.0883,0.337287 -0.157339,-0.02177 -0.153423,-0.797864 z m 16.519444,0.323381 c 0.01693,-0.410969 0.100521,-0.494559 0.213134,-0.213138 0.101907,0.25466 0.08938,0.558934 -0.02783,0.676159 -0.117224,0.117224 -0.200603,-0.09114 -0.185286,-0.463021 z m 0.330493,-1.028936 c -0.004,-0.479842 1.309042,-2.632086 2.236332,-3.665679 0.858344,-0.956744 3.70301,-2.862407 4.265363,-2.857401 0.204547,0.0018 -0.421845,0.461172 -1.391984,1.02078 -2.075804,1.197391 -2.974015,2.109435 -4.20286,4.267577 -0.497156,0.873125 -0.905239,1.42875 -0.906851,1.234723 z m -17.235978,-1.5875 c 0,-0.48507 0.08007,-0.683507 0.177937,-0.440973 0.09786,0.242535 0.09786,0.63941 0,0.881945 -0.09786,0.242535 -0.177937,0.0441 -0.177937,-0.440972 z m -0.865015,-3.424019 c -0.335961,-1.280936 -0.54894,-2.390874 -0.473287,-2.466531 0.07566,-0.07566 0.419372,0.903549 0.76381,2.176008 0.344438,1.272459 0.557417,2.382396 0.473287,2.466527 -0.08413,0.08413 -0.427846,-0.895072 -0.76381,-2.176004 z m 92.178758,1.66013 c 0.6791,-0.371789 1.39348,-0.675982 1.5875,-0.675982 0.19403,0 -0.20284,0.304193 -0.88194,0.675982 -0.6791,0.371789 -1.39347,0.675982 -1.5875,0.675982 -0.19403,0 0.20285,-0.304193 0.88194,-0.675982 z M 36.835034,26.802463 c -0.522037,-1.700953 -0.269385,-1.953606 0.282222,-0.282222 0.232703,0.705097 0.354492,1.350599 0.270644,1.434447 -0.08385,0.08385 -0.332638,-0.434654 -0.552866,-1.152225 z m 103.646116,0.246944 c 0.29104,-0.188087 0.68792,-0.341972 0.88194,-0.341972 0.19403,0 0.11466,0.153885 -0.17639,0.341972 -0.29104,0.188087 -0.68791,0.341973 -0.88194,0.341973 -0.19403,0 -0.11465,-0.153886 0.17639,-0.341973 z m 2.11667,-0.881944 c 0.48506,-0.27729 1.04069,-0.504165 1.23472,-0.504165 0.19403,0 -0.0441,0.226875 -0.52917,0.504165 -0.48507,0.27729 -1.04069,0.504165 -1.23472,0.504165 -0.19403,0 0.0441,-0.226875 0.52917,-0.504165 z m -22.75417,-0.881944 c -0.44473,-0.191107 -0.50994,-0.303188 -0.17639,-0.303188 0.29104,0 0.84667,0.136433 1.23472,0.303188 0.44473,0.191106 0.50993,0.303187 0.17639,0.303187 -0.29104,0 -0.84667,-0.136433 -1.23472,-0.303187 z m 24.51805,0.262413 c 0.28492,-0.287535 4.71719,-2.012823 4.84433,-1.885682 0.0638,0.06382 -0.64286,0.43699 -1.5704,0.829268 -1.86798,0.790014 -3.54669,1.331694 -3.27393,1.056414 z M 35.71773,23.902372 c -0.239892,-0.579141 -1.126102,-2.263673 -1.969361,-3.743399 -0.843259,-1.479726 -1.335147,-2.526044 -1.093085,-2.325151 0.578555,0.480159 3.876883,6.743266 3.663544,6.956608 -0.09072,0.09071 -0.361209,-0.308913 -0.601098,-0.888058 z m 35.552826,0.789383 c 0.25466,-0.101907 0.558934,-0.08938 0.676158,0.02783 0.117225,0.117224 -0.09114,0.200603 -0.46302,0.185286 -0.410969,-0.01693 -0.49456,-0.100521 -0.213138,-0.213134 z m 45.750874,-0.275442 c -1.36245,-0.623852 -0.72874,-0.633007 0.88194,-0.01273 0.6791,0.261517 0.9966,0.480405 0.70556,0.486417 -0.29105,0.006 -1.00542,-0.207144 -1.5875,-0.473679 z m -43.832645,-0.08903 c 0.533576,-0.08083 1.406702,-0.08083 1.940278,0 0.533576,0.08083 0.09701,0.146964 -0.970139,0.146964 -1.067153,0 -1.503715,-0.06614 -0.970139,-0.146964 z m 38.113645,-2.39044 C 103.61792,18.024809 96.81654,11.706619 92.31167,4.2952409 c -1.143318,-1.8809793 0.029,-0.4314049 1.989084,2.4595208 2.566603,3.7854673 8.270626,9.4585153 11.987316,11.9222343 1.66374,1.102857 4.52124,2.720202 6.35,3.5941 1.82876,0.873898 3.13272,1.592146 2.89769,1.596108 -0.23503,0.004 -2.14003,-0.864701 -4.23333,-1.930358 z M 44.054638,21.137967 C 42.900462,18.196163 40.536442,14.117139 38.185813,11.011526 37.210051,9.7223671 36.411701,8.5172571 36.411701,8.3335022 c 0,-0.1837514 0.754062,-0.3063593 1.675694,-0.2724609 l 1.675695,0.06163 -1.499306,0.1350434 c -0.824618,0.07427 -1.499306,0.2182565 -1.499306,0.3199659 0,0.1017093 0.541811,0.8466455 1.20402,1.6554104 1.969714,2.405627 5.005494,7.464784 6.197608,10.328373 0.612711,1.4718 1.049094,2.740925 0.96974,2.820282 -0.07936,0.07935 -0.565902,-0.930345 -1.081208,-2.243779 z m 108.504732,0.653087 c 6.74608,-3.78399 11.12936,-7.842483 13.55119,-12.5470853 0.73923,-1.4360066 1.40168,-2.553282 1.47212,-2.4828394 0.0704,0.070443 -0.4712,1.2685113 -1.20365,2.6623751 -1.65111,3.1420646 -5.58488,7.3884046 -9.03901,9.7572266 -2.74862,1.884987 -7.01851,4.341421 -7.54416,4.340094 -0.17538,-3.52e-4 1.06819,-0.778841 2.76351,-1.729771 z m -19.92753,-3.463513 c 0.63059,-0.07825 1.66247,-0.07825 2.29306,0 0.63059,0.07826 0.11465,0.142286 -1.14653,0.142286 -1.26118,0 -1.77712,-0.06403 -1.14653,-0.142286 z m -4.23333,-0.346544 c 0.43656,-0.08409 1.15094,-0.08409 1.5875,0 0.43656,0.08409 0.0794,0.152883 -0.79375,0.152883 -0.87313,0 -1.23031,-0.0688 -0.79375,-0.152883 z m 9.52911,-7.05e-4 c 0.43883,-0.08438 1.07383,-0.08118 1.41111,0.0071 0.33729,0.0883 -0.0218,0.157339 -0.79786,0.153423 -0.77611,-0.0039 -1.05207,-0.07616 -0.61325,-0.160542 z m -11.81545,-0.347744 c 0.34324,-0.08944 0.81949,-0.08356 1.05833,0.01309 0.23884,0.09664 -0.042,0.169817 -0.62407,0.162627 -0.58209,-0.0072 -0.77751,-0.08625 -0.43426,-0.175697 z m 14.0456,0.115873 c 0.0808,-0.07073 1.02011,-0.218979 2.08727,-0.329441 1.25256,-0.129657 1.62768,-0.09654 1.05833,0.09343 -0.87406,0.291645 -3.42824,0.483281 -3.1456,0.236008 z m -17.4919,-0.743302 c -1.8945,-0.624378 -1.1488,-0.648773 1.05833,-0.03461 0.97014,0.269949 1.44639,0.492813 1.05834,0.495251 -0.38806,0.0025 -1.34056,-0.204848 -2.11667,-0.460633 z M 29.843052,14.674602 C 27.497803,11.851554 22.67785,7.7196724 19.600375,5.8941144 13.007568,1.9832659 2.8677397,-5.713943 -1.5626342,-10.17087 c -2.5529541,-2.568251 -5.0634302,-6.071264 -5.0548542,-7.053333 0.00176,-0.194028 0.4560817,0.468767 1.0097488,1.472875 2.0889525,3.788449 5.99574429,7.6069049 13.5971708,13.2897421 3.6506998,2.72926526 5.2798808,3.850266 13.4292128,9.2403259 3.070123,2.0306171 8.32672,6.893549 9.994876,9.246362 1.365892,1.926498 0.616649,1.282195 -1.570468,-1.3505 z m 114.805288,2.256042 c 0.25466,-0.101907 0.55893,-0.08938 0.67615,0.02783 0.11723,0.117224 -0.0911,0.200603 -0.46302,0.185286 -0.41096,-0.01693 -0.49456,-0.100521 -0.21313,-0.213134 z m 1.41111,-0.352778 c 0.25466,-0.101907 0.55893,-0.08938 0.67616,0.02783 0.11722,0.117225 -0.0911,0.200604 -0.46303,0.185286 -0.41096,-0.01693 -0.49455,-0.10052 -0.21313,-0.213134 z m -28.33247,-1.323227 c -2.31759,-1.116274 -1.86576,-1.150712 0.57212,-0.04361 1.04353,0.473894 1.73858,0.868726 1.54455,0.877408 -0.19403,0.0087 -1.14653,-0.366529 -2.11667,-0.833797 z m 32.98472,-0.199676 c 0.29105,-0.188087 0.68792,-0.341972 0.88195,-0.341972 0.19403,0 0.11465,0.153885 -0.17639,0.341972 -0.29104,0.188087 -0.68792,0.341972 -0.88194,0.341972 -0.19403,0 -0.11466,-0.153885 0.17638,-0.341972 z m 3.88115,-1.77001 c 4.93894,-2.603955 7.76987,-5.5491198 10.6598,-11.0899428 0.91551,-1.75528818 1.66957,-3.06884917 1.6757,-2.91902092 0.0258,0.63256936 -2.8564,5.89096202 -4.30908,7.86148692 -1.72951,2.3460357 -4.9694,4.9628988 -8.1028,6.5446348 -3.02885,1.52896 -2.96702,1.207406 0.0764,-0.397158 z M 112.41619,12.544995 C 107.14056,9.2223858 102.61491,4.4812218 99.166534,-1.3356039 97.266917,-4.5399374 94.739719,-10.229537 95.069545,-10.55936 c 0.07469,-0.07469 0.635498,1.1732967 1.246244,2.7732921 2.998167,7.85438548 8.980801,15.3532133 15.744851,19.7351049 2.15321,1.394897 2.55428,1.694815 2.26643,1.694815 -0.0914,0 -0.95126,-0.494485 -1.91088,-1.098857 z M 42.673506,8.4437664 c 1.212674,-0.068887 3.197049,-0.068887 4.409723,0 1.212673,0.068887 0.220486,0.1252503 -2.204862,0.1252503 -2.425347,0 -3.417534,-0.056363 -2.204861,-0.1252503 z m 7.761112,-0.3405469 c 0.436562,-0.084088 1.150937,-0.084088 1.5875,0 0.436562,0.084084 0.07937,0.1528833 -0.79375,0.1528833 -0.873125,0 -1.230313,-0.068799 -0.79375,-0.1528833 z m 3.005324,-0.3482834 c 0.343242,-0.089443 0.819492,-0.083563 1.058334,0.013088 0.238841,0.096636 -0.04199,0.1698167 -0.624075,0.1626271 -0.582083,-0.0072 -0.777501,-0.086254 -0.434259,-0.1756975 z m 1.933565,-0.341944 c 0.242534,-0.097864 0.639409,-0.097864 0.881944,0 0.242535,0.097864 0.0441,0.1779376 -0.440972,0.1779376 -0.48507,0 -0.683507,-0.080074 -0.440972,-0.1779376 z m 2.028472,-0.4719179 c 0.388056,-0.1667545 0.943681,-0.3031878 1.234722,-0.3031878 0.333545,0 0.268337,0.112081 -0.176389,0.3031878 -0.388055,0.1667545 -0.94368,0.3031878 -1.234722,0.3031878 -0.333544,0 -0.268337,-0.112081 0.176389,-0.3031878 z m 2.469445,-0.7055555 c 0.969817,-0.4167435 1.526811,-0.4167435 0.881944,0 -0.291042,0.188087 -0.767292,0.333248 -1.058333,0.32258 -0.348919,-0.012771 -0.288834,-0.1226679 0.176389,-0.32258 z M 167.6522,6.1473242 c 0.0393,-0.4835278 2.06491,-6.3306289 2.08395,-6.01543254 0.0335,0.55453139 -1.7212,6.10362704 -1.93007,6.10362704 -0.0886,0 -0.15782,-0.039688 -0.15388,-0.088195 z M 64.161815,4.3498333 c 6.360005,-3.3405128 12.098243,-9.3320587 17.702362,-18.4838053 1.942913,-3.172848 2.6156,-3.742055 2.783667,-2.355441 0.04509,0.371976 -0.0078,0.477883 -0.117595,0.235349 -0.368089,-0.813347 -0.728024,-0.456022 -2.559304,2.540761 C 76.67261,-5.0428926 70.200891,1.6668842 64.242093,4.667686 62.915067,5.3359671 61.706288,5.8781054 61.555923,5.8724398 61.405559,5.8667601 62.57821,5.1816021 64.161815,4.3498333 Z M 90.73948,1.6494076 C 90.343536,0.87329649 90.098959,0.23829649 90.195973,0.23829649 c 0.09701,0 0.500341,0.635 0.896285,1.41111111 0.395944,0.7761111 0.640521,1.4111111 0.543507,1.4111111 -0.09701,0 -0.500341,-0.635 -0.896285,-1.4111111 z M 42.128906,-0.37573086 c 1.301199,-0.0676839 3.523699,-0.0681355 4.938889,-0.001058 1.415189,0.0671336 0.350573,0.12250914 -2.365816,0.12305948 -2.716389,7.0555e-4 -3.874273,-0.0543772 -2.573073,-0.12205759 z m -5.095731,-0.3410338 c 0.438824,-0.0843809 1.073824,-0.0811777 1.411111,0.007126 0.337288,0.0882967 -0.02177,0.15733888 -0.797863,0.15342305 -0.776111,-0.003916 -1.052072,-0.0761612 -0.613248,-0.16054211 z m 13.577832,0.006315 c 0.339548,-0.0887307 0.895173,-0.0887307 1.234722,0 0.339548,0.0887342 0.06174,0.16133586 -0.617361,0.16133586 -0.679098,0 -0.95691,-0.0726017 -0.617361,-0.16133586 z M 169.78956,-1.0258333 c 0.0169,-0.4109684 0.10052,-0.4945591 0.21313,-0.2131377 0.10191,0.25465967 0.0894,0.55893403 -0.0278,0.67615856 -0.11723,0.11722452 -0.20061,-0.0911366 -0.18529,-0.46302086 z M 34.03045,-1.0632171 c 0.339549,-0.088731 0.895174,-0.088731 1.234723,0 0.339548,0.0887342 0.06174,0.16133583 -0.617361,0.16133583 -0.679098,0 -0.95691,-0.0726017 -0.617362,-0.16133583 z M 55.108923,-1.546184 c 7.00973,-1.8208978 11.810218,-5.8865276 17.937724,-15.191818 3.61315,-5.486964 3.773357,-5.707401 2.660834,-3.661201 -2.406276,4.42572 -7.418003,11.0542701 -10.295273,13.6166009 -0.913127,0.8131774 -2.600283,2.0922438 -3.749234,2.8423658 -2.06744,1.3497807 -6.926556,3.13828991 -8.424344,3.10077553 -0.426548,-0.0106892 0.415085,-0.32871123 1.870293,-0.70672323 z m 33.388968,-1.3391092 c -0.513376,-1.1439525 -0.926126,-2.2188134 -0.917222,-2.3885807 0.0089,-0.1697637 0.486682,0.7084554 1.061727,1.951602 0.575045,1.2431465 0.987796,2.3180075 0.917222,2.38858065 -0.07057,0.0705732 -0.54835,-0.80764595 -1.061727,-1.95160195 z m -56.577394,1.4680071 c 0.343242,-0.089443 0.819492,-0.083562 1.058333,0.013088 0.238842,0.096636 -0.04199,0.1698166 -0.624074,0.162627 -0.582083,-0.0072 -0.777501,-0.086254 -0.434259,-0.1756974 z m 135.029793,0.068083 c 0,-0.1940278 0.15388,-0.5909028 0.34197,-0.8819444 0.18809,-0.2910417 0.34197,-0.3704167 0.34197,-0.1763889 0,0.1940278 -0.15388,0.5909028 -0.34197,0.8819444 -0.18809,0.2910417 -0.34197,0.3704167 -0.34197,0.1763889 z M 27.768645,-2.0467157 c -2.36515,-0.6079419 -1.255794,-0.6305832 1.411111,-0.028787 1.164167,0.262696 1.719792,0.4786524 1.234722,0.4799083 -0.485069,0.00141 -1.675694,-0.201743 -2.645833,-0.4511075 z m 142.401535,-0.53721 c 0,-0.4850694 0.0801,-0.6835069 0.17794,-0.4409722 0.0979,0.2425347 0.0979,0.6394097 0,0.8819444 -0.0979,0.2425347 -0.17794,0.044097 -0.17794,-0.4409722 z M 23.182533,-3.1032146 c -1.894505,-0.6243778 -1.148799,-0.6487724 1.058334,-0.034608 0.970139,0.2699491 1.446389,0.4928129 1.058333,0.4952506 -0.388055,0.00247 -1.340555,-0.2048475 -2.116667,-0.4606325 z M 167.86868,-3.642259 c 0.119,-0.4850695 0.43323,-1.3581945 0.69828,-1.9402778 0.38705,-0.8499863 0.43932,-0.8847102 0.26555,-0.1763889 -0.119,0.4850695 -0.43323,1.3581945 -0.69828,1.9402778 -0.38705,0.8499863 -0.43933,0.8847102 -0.26555,0.1763889 z M 19.301978,-4.1396686 c -1.781017,-0.5682263 -7.288128,-3.0917762 -7.118132,-3.2617728 0.06992,-0.069924 1.382607,0.4555279 2.917077,1.1676663 1.534467,0.7121419 3.663069,1.57208 4.730221,1.9109795 1.067153,0.338896 1.702153,0.6200387 1.411112,0.6247589 -0.291042,0.00473 -1.164167,-0.1940137 -1.940278,-0.4416319 z m 151.220982,-0.208146 c 0,-0.4850694 0.0801,-0.6835069 0.17794,-0.4409722 0.0979,0.2425347 0.0979,0.6394097 0,0.8819444 -0.0979,0.2425348 -0.17794,0.044097 -0.17794,-0.4409722 z m 0.36585,-1.9402777 c 0.007,-0.5820834 0.0863,-0.7775011 0.1757,-0.4342589 0.0894,0.3432422 0.0836,0.8194922 -0.0131,1.0583333 -0.0966,0.2388412 -0.16981,-0.041991 -0.16263,-0.6240744 z M 86.722212,-7.3901489 c -0.312864,-0.9182065 -0.557244,-1.8396233 -0.543066,-2.0475928 0.01418,-0.2079696 0.331174,0.4822719 0.704438,1.5338672 0.373263,1.0515988 0.617643,1.9730155 0.543066,2.0475927 -0.07458,0.074577 -0.391573,-0.6156642 -0.704438,-1.5338671 z M 171.24159,-8.404759 c 0.007,-0.5820833 0.0863,-0.777501 0.1757,-0.4342589 0.0894,0.3432422 0.0836,0.8194922 -0.0131,1.0583334 -0.0966,0.2388411 -0.16982,-0.041991 -0.16263,-0.6240745 z m -1.79788,0.4298033 c -0.0548,-0.4344741 2.02404,-7.2710783 2.41472,-7.9411863 0.25966,-0.445393 0.34489,-0.05055 0.32683,1.514161 -0.0177,1.535091 -0.0984,1.874343 -0.29349,1.234722 -0.31235,-1.023856 -0.31794,-1.013742 -1.55797,2.822222 -0.47042,1.4552086 -0.87096,2.521744 -0.89009,2.3700813 z M 5.5235074,-10.636167 c -4.75003653,-2.619678 -10.0340305,-6.972942 -10.0340305,-8.26662 0,-0.202156 0.4633137,0.27203 1.0295856,1.053747 1.1960119,1.651046 4.10548323,3.954547 7.6134703,6.027776 3.0838741,1.8225774 3.5724043,2.136659 3.351389,2.1546471 -0.097014,0.0079 -0.9792018,-0.4284031 -1.9604144,-0.9695501 z m 79.9243056,-1.119981 c -0.237758,-0.991083 -0.362137,-1.872124 -0.276394,-1.957864 0.08574,-0.08574 0.344442,0.660972 0.574897,1.659361 0.230456,0.998386 0.354835,1.879424 0.276398,1.95786 -0.07844,0.07844 -0.337143,-0.668274 -0.574901,-1.659357 z m 86.159627,0.705556 c 0,-0.679098 0.0726,-0.95691 0.16133,-0.617361 0.0887,0.339548 0.0887,0.895173 0,1.234722 -0.0887,0.339548 -0.16133,0.06174 -0.16133,-0.617361 z m -77.138594,-0.907144 c -0.129759,-0.516999 -0.167891,-1.008034 -0.08473,-1.091191 0.08315,-0.08315 0.257355,0.271812 0.387114,0.788811 0.129758,0.517 0.16789,1.008035 0.08473,1.091191 -0.08315,0.08315 -0.257354,-0.271811 -0.387114,-0.788811 z m -0.872691,-3.319212 c -0.212976,-0.993076 -0.371292,-2.075592 -0.351808,-2.405591 0.01947,-0.329999 0.258089,0.418165 0.530239,1.662588 0.272147,1.244424 0.43046,2.32694 0.351808,2.405596 -0.07866,0.07865 -0.31726,-0.669513 -0.530239,-1.662593 z m -8.798197,0.3458 c 0,-0.485069 0.08007,-0.683507 0.177937,-0.440972 0.09786,0.242535 0.09786,0.63941 0,0.881944 -0.09786,0.242535 -0.177937,0.0441 -0.177937,-0.440972 z m -91.7222255,-3.527778 c 0,-0.485069 0.080074,-0.683507 0.1779376,-0.440972 0.097864,0.242535 0.097864,0.63941 0,0.881945 -0.097864,0.242534 -0.1779376,0.0441 -0.1779376,-0.440973 z M 92.924921,-19.34087 c 0.0072,-0.582083 0.08625,-0.777501 0.175697,-0.434259 0.08944,0.343242 0.08356,0.819492 -0.01309,1.058333 -0.09664,0.238842 -0.169816,-0.04199 -0.162627,-0.624074 z M -7.2509009,-20.575592 c 0,-0.679097 0.072602,-0.95691 0.1613358,-0.617361 0.088731,0.339548 0.088731,0.895173 0,1.234722 -0.088734,0.339548 -0.1613358,0.06174 -0.1613358,-0.617361 z m 2.2088652,-2.645834 c 0.06762,-1.552222 0.236474,-3.219097 0.375225,-3.704166 0.5467703,-1.911498 -0.6718759,-0.0014 -1.5104922,2.36735 -0.466351,1.317333 -0.7563732,1.849466 -0.6444968,1.182522 0.2276123,-1.35691 1.583228,-4.411807 2.4362588,-5.49015 0.5540516,-0.700394 0.5582179,-0.699915 0.5693551,0.06523 0.00617,0.423933 -0.1657738,1.217683 -0.3820972,1.763889 -0.2163198,0.546209 -0.5223263,2.263104 -0.6800074,3.815326 l -0.2866954,2.822223 z m 97.6414877,1.234723 c 0,-0.873125 0.0688,-1.230313 0.152883,-0.79375 0.08409,0.436562 0.08409,1.150937 0,1.5875 -0.08409,0.436562 -0.152883,0.07937 -0.152883,-0.79375 z M 79.466861,-28.07212 c 2.685697,-5.504205 3.25435,-7.354154 2.419227,-7.870285 -1.072011,-0.662541 -8.089597,-12.610571 -7.659395,-13.040769 0.06149,-0.06149 1.027624,1.661625 2.146973,3.829141 1.119347,2.16752 2.983943,5.260845 4.143552,6.874062 1.159605,1.613214 2.106394,3.280089 2.103977,3.704167 -0.0043,0.751745 -5.424593,12.236323 -5.775103,12.236323 -0.09701,0 1.082333,-2.579688 2.620769,-5.732639 z m 12.81714,-0.264583 c 0,-2.23132 0.05728,-3.144132 0.12729,-2.028472 0.07001,1.115659 0.07001,2.941284 0,4.056944 -0.07001,1.11566 -0.12729,0.202847 -0.12729,-2.028472 z m 0.263381,-5.711614 c -0.08731,-2.582537 3.009028,-9.668354 6.599336,-15.102275 2.141182,-3.240663 5.877162,-7.177556 7.835592,-8.256949 1.52502,-0.84052 1.34663,-0.639313 -0.97434,1.098956 -5.45271,4.08376 -12.139048,15.169061 -13.148094,21.798271 -0.243495,1.599713 -0.272581,1.642713 -0.312494,0.461997 z m -7.657123,-11.133698 c -1.632621,-1.900308 -4.176833,-5.379688 -3.933766,-5.379688 0.08854,0 0.961348,1.071562 1.939583,2.38125 0.978235,1.309687 2.280942,2.8575 2.894905,3.439583 0.92504,0.877006 1.167243,0.96767 1.413627,0.529167 1.348496,-2.399961 5.359583,-7.478106 8.120983,-10.28138 2.966075,-3.011054 8.299489,-7.006645 9.348609,-7.003618 0.19403,5.64e-4 -0.6269,0.595851 -1.8243,1.322869 -5.126033,3.112362 -9.771214,7.752376 -13.755126,13.739826 -1.071471,1.610322 -2.131928,2.927781 -2.356574,2.927686 -0.224642,-9.6e-5 -1.056216,-0.754158 -1.847941,-1.675695 z m -11.21692,-4.86416 c -0.340423,-0.887127 -0.239998,-1.11603 0.175871,-0.400875 0.205913,0.3541 0.300073,0.718135 0.209243,0.808965 -0.09083,0.09083 -0.264132,-0.09281 -0.385114,-0.40809 z m 5.80751,-2.637493 c -1.062186,-1.726276 -1.549506,-2.956836 -0.622734,-1.572504 1.045675,1.561941 2.050263,3.341691 1.886228,3.341691 -0.09619,0 -0.664767,-0.796135 -1.263494,-1.769187 z m -6.865843,-0.184729 c -0.120985,-0.315278 -0.20991,-0.758687 -0.197608,-0.985354 0.01231,-0.226663 0.174459,-0.03189 0.360355,0.432848 0.185896,0.464731 0.274821,0.908141 0.197609,0.985354 -0.07721,0.07721 -0.239374,-0.117571 -0.360356,-0.432848 z m -0.729537,-2.828184 c -0.132818,-0.707969 -0.170932,-1.357774 -0.08469,-1.444009 0.08623,-0.08623 0.265458,0.422459 0.398272,1.130432 0.132817,0.707968 0.170931,1.357774 0.0847,1.444007 -0.08623,0.08624 -0.265459,-0.422458 -0.398272,-1.13043 z m 5.316227,-1.560403 c -0.796089,-1.989623 -0.673411,-2.285689 0.164521,-0.397046 0.378404,0.852901 0.62519,1.61355 0.548408,1.690329 -0.07678,0.07678 -0.397599,-0.505196 -0.712929,-1.293283 z m -5.776031,-1.594997 c 0.0039,-0.776111 0.07616,-1.052072 0.160542,-0.613248 0.08438,0.438825 0.08118,1.073825 -0.0071,1.411111 -0.0883,0.337287 -0.157339,-0.02175 -0.153423,-0.797863 z m 37.156055,0.558852 c 0.43,-0.4018 4.71179,-1.934914 4.89429,-1.752419 0.078,0.07802 -1.06459,0.572732 -2.53913,1.099362 -1.47454,0.526631 -2.53436,0.820506 -2.35516,0.653057 z m -32.278277,-1.646583 c 0.01693,-0.410966 0.10052,-0.494559 0.213134,-0.213137 0.101907,0.254662 0.08938,0.558932 -0.02783,0.676158 -0.117225,0.117225 -0.200604,-0.09113 -0.185286,-0.463021 z m 38.006007,-0.387978 c 0.25466,-0.101908 0.55893,-0.08938 0.67615,0.02785 0.11723,0.117226 -0.0911,0.200604 -0.46302,0.185286 -0.41096,-0.01693 -0.49456,-0.100521 -0.21313,-0.213136 z m 1.38906,-0.345429 c 0.24253,-0.09786 0.63941,-0.09786 0.88194,0 0.24254,0.09786 0.0441,0.177936 -0.44097,0.177936 -0.48507,0 -0.68351,-0.08007 -0.44097,-0.177936 z m -44.625623,-1.353862 c 0.0039,-0.776111 0.07616,-1.052072 0.160543,-0.613248 0.08438,0.438825 0.08118,1.073825 -0.0071,1.411111 -0.0883,0.337287 -0.157338,-0.02175 -0.153423,-0.797863 z m 4.877778,0.676158 c 0.01693,-0.410966 0.10052,-0.494559 0.213134,-0.213137 0.101907,0.254661 0.08938,0.558932 -0.02783,0.676158 -0.117225,0.117224 -0.200604,-0.09114 -0.185286,-0.463021 z m 41.694835,0.314093 c 0.34324,-0.08945 0.81949,-0.08356 1.05833,0.01307 0.23884,0.09663 -0.042,0.169816 -0.62407,0.162626 -0.58208,-0.0072 -0.7775,-0.08625 -0.43426,-0.175698 z m 2.29046,-0.357812 c 0.43882,-0.08438 1.07382,-0.08118 1.41111,0.0071 0.33728,0.0883 -0.0218,0.157337 -0.79787,0.153422 -0.77611,-0.0039 -1.05207,-0.07616 -0.61324,-0.160541 z m -13.72492,-0.677541 c 0.65123,-0.284194 1.6831,-0.594285 2.29305,-0.689091 0.60995,-0.09481 0.1565,0.148326 -1.00766,0.540296 -2.45452,0.826425 -2.97671,0.886872 -1.28539,0.148795 z m 17.2549,0.3186 c 0.63406,-0.07851 1.58656,-0.0769 2.11667,0.0036 0.5301,0.08049 0.0113,0.144734 -1.15285,0.142754 -1.16417,-0.002 -1.59789,-0.06784 -0.96382,-0.146354 z m 6.0791,-0.419194 c 2.03305,-0.216983 1.74339,-0.696136 -0.46983,-0.777171 -0.62697,-0.02295 -0.83932,-0.113161 -0.48369,-0.205458 0.3487,-0.09049 1.75807,0.02507 3.13194,0.256797 3.21587,0.542428 2.54012,1.055839 -1.29648,0.985014 -2.65808,-0.04907 -2.70937,-0.06414 -0.88194,-0.259182 z m -53.854069,-2.676526 c 0.0014,-1.552222 0.0633,-2.143338 0.137827,-1.313592 0.07452,0.829747 0.07347,2.099747 -0.0025,2.822223 -0.07566,0.722475 -0.136638,0.04359 -0.135357,-1.508631 z m 34.363089,1.70664 c 0.24254,-0.09786 0.63941,-0.09786 0.88195,0 0.24253,0.09787 0.0441,0.177936 -0.44097,0.177936 -0.48507,0 -0.68351,-0.08007 -0.44098,-0.177936 z m 2.12078,-0.368646 c 0.43883,-0.08438 1.07383,-0.08118 1.41112,0.0071 0.33728,0.0883 -0.0218,0.157338 -0.79787,0.153422 -0.77611,-0.0039 -1.05207,-0.07616 -0.61325,-0.160541 z m 12.5195,-0.0032 c 0.53358,-0.08083 1.4067,-0.08083 1.94028,0 0.53358,0.08083 0.097,0.146964 -0.97014,0.146964 -1.06715,0 -1.50371,-0.06613 -0.97014,-0.146964 z m -7.57089,-0.361654 c 1.22027,-0.06908 3.12527,-0.06851 4.23333,0.0013 1.10805,0.06978 0.10965,0.126306 -2.21869,0.125609 -2.32833,-7.06e-4 -3.23492,-0.05779 -2.01464,-0.126877 z m -45.704904,-1.149554 c 0,-0.679097 0.0726,-0.95691 0.161336,-0.617361 0.08873,0.339549 0.08873,0.895174 0,1.234722 -0.08873,0.339549 -0.161336,0.06174 -0.161336,-0.617361 z m 0.330895,-1.940278 c -0.0057,-0.388055 0.126062,-1.023055 0.292816,-1.411111 0.386295,-0.898957 0.386295,0.02851 0,1.234722 -0.227058,0.708989 -0.28448,0.74358 -0.292816,0.176389 z m 4.242146,-2.116666 c 0.0072,-0.582084 0.08625,-0.7775 0.175697,-0.434258 0.08944,0.343241 0.08356,0.819491 -0.01309,1.058333 -0.09662,0.238842 -0.169799,-0.04199 -0.162609,-0.624075 z m -3.58485,-0.452353 c -0.01464,-0.565334 2.129934,-6.16666 2.297031,-5.999563 0.06728,0.06728 -0.419396,1.546485 -1.0815,3.287122 -0.662104,1.740637 -1.209093,2.961235 -1.215531,2.712441 z m 3.924554,-1.487925 c 0,-0.485069 0.08007,-0.683507 0.177937,-0.440972 0.09786,0.242534 0.09786,0.639409 0,0.881944 -0.09786,0.242535 -0.177937,0.0441 -0.177937,-0.440972 z m 0.324929,-1.616898 c 0.01693,-0.410966 0.100521,-0.494559 0.213135,-0.213137 0.101906,0.254662 0.08938,0.558933 -0.02783,0.676158 -0.117224,0.117225 -0.200603,-0.09113 -0.185286,-0.463021 z m 0.350478,-1.098919 c -0.03482,-0.576114 1.756537,-6.20302 1.922067,-6.03749 0.0727,0.0727 -0.324283,1.555991 -0.882173,3.296212 -0.55789,1.740222 -1.025843,2.973797 -1.039894,2.741278 z m -1.789441,-3.060274 c 0,-0.380992 1.401308,-3.043353 1.601841,-3.043353 0.09701,0 -0.163851,0.674687 -0.579702,1.499305 -0.817796,1.62167 -1.022139,1.930352 -1.022139,1.544048 z m 3.02036,-5.777381 c 1.991569,-3.600392 4.186933,-6.864931 4.329321,-6.437767 0.134444,0.403335 -2.062011,6.110389 -2.271183,5.901217 -0.06758,-0.06758 0.193668,-0.986528 0.580545,-2.042116 0.701506,-1.914057 0.701513,-1.91703 0.0014,-1.098589 -0.386062,0.451364 -1.352483,1.999176 -2.147605,3.439583 -0.795049,1.440407 -1.527521,2.618922 -1.627643,2.618922 -0.100122,0 0.410697,-1.071563 1.135154,-2.38125 z m 1.062412,1.675694 c 0.129751,-0.485069 0.383035,-1.120069 0.562857,-1.411111 0.227227,-0.367766 0.254998,-0.260166 0.09104,0.352778 -0.129752,0.485069 -0.383036,1.120069 -0.562857,1.411111 -0.227228,0.367766 -0.254999,0.260166 -0.09105,-0.352778 z"
         id="path4032"
         inkscape:connector-curvature="0" />
      <path
         style="fill:#458fcb;stroke-width:0.35277778"
         d="m 71.18742,280.60843 c -0.895233,-1.37093 -2.933277,-7.00398 -3.867591,-10.68983 -1.585225,-6.25366 -2.087947,-10.1748 -2.123426,-16.56225 -0.04124,-7.42356 0.127388,-8.13736 6.500358,-27.51667 6.521316,-19.8304 7.414817,-23.54007 7.434792,-30.86805 0.0236,-8.65618 -0.805498,-11.4188 -10.904877,-36.33611 -9.20175,-22.70268 -11.773697,-33.06029 -11.782182,-47.44861 -0.006,-10.1796 0.88416,-15.60565 4.84311,-29.521619 1.565713,-5.50358 2.504214,-9.385211 2.314924,-9.574501 -1.024036,-1.024037 -7.652706,-0.468017 -12.502751,1.048748 -6.359307,1.988753 -15.990673,8.137105 -18.19727,11.616549 -1.364753,2.151987 -3.134064,7.675351 -3.410112,10.645538 -0.378203,4.069299 1.176651,8.294875 5.433501,14.766455 1.162932,1.76798 2.308856,3.57781 2.546498,4.02184 l 0.432072,0.80734 -1.040441,-0.74086 c -1.702273,-1.21212 -7.368459,-7.31262 -8.936031,-9.62097 -3.194699,-4.704406 -4.078457,-8.109636 -3.727164,-14.361229 0.127783,-2.273984 0.323652,-4.797149 0.435268,-5.607032 l 0.202935,-1.472515 -1.67797,-0.25163 c -2.299931,-0.344893 -7.034346,0.04349 -9.060512,0.743278 -3.049926,1.053366 -6.7148425,5.18275 -9.8100478,11.053311 -0.6524414,1.23746 -1.2468826,2.068058 -1.3209765,1.845772 C 2.7087499,95.803062 4.7091446,89.630523 6.2633777,86.421664 7.3137065,84.25317 8.4203775,82.590994 9.5976534,81.413715 12.594307,78.417062 17.736135,76.460009 24.534,75.728726 c 2.620307,-0.28188 3.714091,-0.547342 4.05728,-0.984702 0.856742,-1.091822 4.960493,-9.722273 6.064268,-12.753534 1.204299,-3.307337 2.865074,-9.7094 3.573251,-13.774416 0.267896,-1.537755 0.464083,-5.452967 0.468447,-9.348611 0.0066,-5.929136 -0.08697,-7.048881 -0.811093,-9.701389 C 36.879583,25.478922 34.89313,21.175008 32.643395,17.806947 30.278313,14.266198 25.191307,9.2667652 21.418644,6.7754239 13.446011,1.5105648 11.645165,0.27142938 7.9351105,-2.5023882 -4.8545378,-12.064557 -8.3556881,-17.334394 -6.335051,-23.981443 c 0.731319,-2.405736 2.1593776,-4.946795 1.6545914,-2.944149 -0.5257095,2.085661 -0.6107713,5.350746 -0.1795251,6.891006 1.0176545,3.634711 5.67741874,7.153303 16.3564717,12.3507919 4.47276,2.1768893 7.876875,3.5835484 10.098546,4.1729483 16.74723,4.44296798 31.824095,4.46514712 39.344535,0.057877 4.175238,-2.4468525 7.97626,-6.5023576 12.57645,-13.4184572 3.005473,-4.51854 9.109573,-16.368356 9.109573,-17.684301 0,-0.43512 -0.947335,-2.11103 -2.105187,-3.724244 -3.75726,-5.234929 -7.103636,-12.2976 -8.364489,-17.653613 -0.799133,-3.394662 -0.785318,-8.89361 0.02995,-11.91423 1.088372,-4.032559 3.300885,-9.223903 5.863707,-13.758333 3.066852,-5.426219 3.916055,-6.394403 2.630117,-2.998611 -2.600727,6.867753 -3.109747,8.384256 -3.907561,11.641666 -1.303817,5.32338 -1.471013,9.237546 -0.539454,12.628884 0.415633,1.513109 1.305726,3.864048 1.977987,5.22431 2.072146,4.192817 7.518051,11.603151 8.527552,11.603578 0.224646,9.5e-5 1.29787,-1.336552 2.384944,-2.970326 4.175196,-6.274929 9.950338,-11.842291 14.835623,-14.301862 3.25181,-1.63717 7.14846,-2.497701 12.3571,-2.728926 4.57542,-0.203114 13.58977,0.3704 14.58615,0.928005 0.31739,0.177621 -0.91564,0.383411 -3.15184,0.526034 -15.72068,1.002655 -21.37055,3.268527 -27.1565,10.89107 -2.56397,3.377826 -5.686663,9.121807 -7.230839,13.300622 -0.94016,2.544244 -0.977935,2.903195 -0.983827,9.348611 -0.0068,7.477559 0.46826,10.988128 2.291613,16.933333 6.160963,20.088324 23.167483,31.7835 43.341083,29.805122 10.95055,-1.073898 20.31031,-5.289067 24.6206,-11.0878865 2.26697,-3.0498556 4.7437,-8.419599 6.91202,-14.9858306 1.03261,-3.1270189 1.99816,-5.8014449 2.14565,-5.9431659 0.74121,-0.712216 -1.37529,11.1639066 -2.87747,16.1460777 -1.63348,5.417633 -3.52827,8.9598423 -6.48813,12.1292373 -4.11595,4.407312 -8.90466,7.332101 -17.96267,10.971004 -12.55821,5.045047 -21.05485,10.12045 -27.86151,16.642863 -5.80852,5.565948 -8.76176,9.986204 -10.56944,15.819801 -2.28039,7.359043 -2.39722,17.945833 -0.32089,29.078085 0.70305,3.769438 0.84416,4.131049 2.17573,5.575632 1.90371,2.065274 6.62794,5.166892 9.5388,6.262536 4.30236,1.619404 9.37482,1.105422 17.44758,-1.767922 2.00169,-0.712462 3.71505,-1.219764 3.80748,-1.127336 0.50381,0.503812 -9.28238,5.986822 -13.09136,7.334832 -4.7671,1.6871 -10.79728,1.22871 -17.0951,-1.29948 -2.37304,-0.95264 -3.06804,-1.10719 -3.3945,-0.7549 -0.66397,0.71652 -1.56303,3.77688 -1.91745,6.52692 -0.67356,5.2264 0.63505,8.08848 6.28283,13.74125 1.99724,1.999 3.42599,3.63443 3.175,3.63429 -0.72563,-3.5e-4 -6.04257,-3.28009 -8.5424,-5.26926 -3.468,-2.75958 -5.354644,-5.64157 -6.247912,-9.54416 -0.460584,-2.01224 -0.424135,-9.4022 0.05953,-12.069445 0.44559,-2.457291 0.314029,-2.760641 -3.113458,-7.178858 C 91.291836,86.67324 85.923677,81.603781 81.743659,78.829286 77.914944,76.28797 74.0585,74.322349 72.900423,74.321908 c -0.763676,-2.93e-4 -1.020886,0.772883 -4.987622,14.992777 -3.913604,14.029445 -4.116331,27.302115 -0.628763,41.166025 1.857558,7.38425 3.913731,13.12015 10.447944,29.14559 6.984486,17.12975 8.459192,21.53328 9.474028,28.28977 0.625584,4.16496 0.478942,10.8991 -0.341856,15.69861 -1.008553,5.89743 -1.894371,8.99404 -7.0641,24.69445 -6.783218,20.60055 -7.256907,22.83859 -6.920036,32.69505 0.121493,3.5548 0.320463,9.59859 0.442157,13.43064 l 0.221263,6.96736 h -0.918842 c -0.564106,0 -1.118948,-0.30642 -1.437164,-0.79375 z M 95.780354,70.882046 c 0.257418,-10.176831 1.369652,-15.408053 4.669106,-21.960417 3.18288,-6.320881 10.73482,-14.426441 18.24187,-19.579166 2.26145,-1.552222 4.07263,-2.965955 4.02486,-3.141627 -0.0478,-0.175677 -1.90723,-0.909243 -4.1321,-1.630155 -7.652,-2.479414 -13.41026,-5.97669 -18.848776,-11.447797 -7.051548,-7.0938038 -11.458646,-15.1401922 -14.099685,-25.742928 -0.625821,-2.512434 -1.281286,-4.61433 -1.456588,-4.67088 -0.175299,-0.05655 -1.216988,1.364079 -2.314864,3.156952 C 71.266128,3.1730548 60.973692,8.9466547 41.967951,8.2460239 c -3.154698,-0.1162932 -5.55625,-0.069451 -5.55625,0.1083769 0,0.1722578 0.784009,1.3490186 1.742246,2.6150252 7.673262,10.137782 10.449754,21.548566 8.703373,35.768985 -0.677876,5.519836 -1.843278,10.707825 -3.638737,16.198504 -0.71241,2.178615 -1.200446,4.055968 -1.08452,4.17189 0.115923,0.115927 1.773005,-0.376085 3.682401,-1.093357 9.488403,-3.564353 19.025316,-3.719339 28.263043,-0.459309 6.418717,2.265189 14.081203,6.778473 18.490756,10.891248 1.224389,1.141984 2.403877,2.083364 2.621086,2.091955 0.274059,0.01083 0.454321,-2.332673 0.589005,-7.657296 z M 71.865868,45.783865 c -3.344605,-0.899336 -6.01219,-3.069696 -7.352266,-5.981834 -0.58196,-1.264676 -0.75552,-2.326552 -0.758176,-4.638735 -0.0032,-2.663476 0.112723,-3.20832 1.035978,-4.874983 1.85118,-3.341754 4.861906,-5.33001 8.515025,-5.623246 6.16602,-0.494951 11.255778,4.330961 11.229422,10.647295 -0.01753,4.205387 -2.147066,7.6792 -5.877684,9.588074 -1.816107,0.929259 -5.055129,1.350539 -6.792299,0.883429 z"
         id="path4030"
         inkscape:connector-curvature="0" />
    </g>
    <g
       inkscape:groupmode="layer"
       id="layer2"
       inkscape:label="Layer 2" />
  </g>
</svg>
